<svg width="1107" height="31" viewBox="0 0 1107 31" fill="none" xmlns="http://www.w3.org/2000/svg">
<path d="M623.195 8.73586L612.186 8.67334L599.182 8.61975L584.649 8.57509L567.973 8.55275C568.255 7.87376 568.404 7.14581 568.413 6.40913C568.408 5.50747 568.184 4.62091 567.761 3.82784C566.923 2.31451 565.619 1.12095 564.049 0.42928C563.324 0.113392 562.538 -0.0314386 561.75 0.00569508C560.962 0.0428288 560.193 0.260962 559.5 0.643648C558.21 1.35819 556.928 2.72029 557.012 4.31462C557.095 5.90894 558.276 7.20853 559.676 7.73997C560.492 8.09641 561.407 8.14705 562.257 7.88287C562.923 7.6034 563.516 7.16896 563.987 6.61455L563.868 6.56989H563.82C563.785 6.55845 563.752 6.54503 563.719 6.5297C563.6 6.48058 563.481 6.42699 563.366 6.36893C563.347 6.36181 563.331 6.34741 563.322 6.32874C563.17 6.2738 563.022 6.20503 562.882 6.1233C562.326 5.82526 561.908 5.31648 561.719 4.70762C561.402 3.49289 562.776 2.497 563.86 2.94805C565.837 3.76978 566.031 5.82856 565.586 7.7087C565.238 9.18692 564.04 10.098 562.688 10.5847C561.221 11.1186 559.612 11.082 558.17 10.482C557.635 10.2626 557.131 9.97441 556.668 9.62458C556.554 9.53526 556.43 9.43701 556.307 9.32536C556.014 8.89473 555.819 8.40364 555.735 7.88734C555.959 7.56336 556.117 7.19756 556.201 6.81105C556.264 6.35181 556.214 5.884 556.056 5.44896C555.878 5.02821 555.65 4.63085 555.378 4.2655C555.169 3.87546 554.907 3.51756 554.599 3.20261C554.574 3.18783 554.547 3.17897 554.518 3.17675C554.49 3.17453 554.461 3.17899 554.435 3.1898C554.408 3.20061 554.385 3.21747 554.366 3.23906C554.347 3.26064 554.333 3.28639 554.326 3.31426C554.194 3.42587 554.091 3.56845 554.026 3.72959C553.903 3.94842 553.788 4.17617 553.674 4.395C553.453 4.82056 553.28 5.26998 553.159 5.73477C553.052 6.19257 553.027 6.66583 553.084 7.1326C553.109 7.33181 553.181 7.52183 553.295 7.68637L553.344 7.75782C553.346 7.80096 553.346 7.8442 553.344 7.88734C553.262 8.40921 553.065 8.90551 552.767 9.33875C552.648 9.4504 552.52 9.54866 552.406 9.63798C551.944 9.98963 551.439 10.2779 550.904 10.4954C549.462 11.0954 547.852 11.132 546.386 10.5981C545.038 10.1114 543.84 9.20031 543.488 7.7221C543.048 5.84196 543.241 3.78318 545.219 2.96145C546.302 2.51486 547.676 3.50629 547.359 4.72102C547.224 5.09191 547.012 5.42885 546.737 5.70868C546.462 5.98852 546.13 6.20463 545.765 6.34214C545.756 6.35956 545.742 6.37367 545.725 6.38233C545.606 6.44039 545.492 6.49397 545.373 6.5431C545.338 6.55844 545.303 6.57186 545.267 6.58329H545.223L545.1 6.62795C545.571 7.18236 546.164 7.6168 546.83 7.89626C547.68 8.16045 548.595 8.10981 549.411 7.75337C550.811 7.22192 552 5.88215 552.08 4.32801C552.159 2.77388 550.877 1.37159 549.592 0.657045C548.898 0.274292 548.128 0.0561283 547.339 0.0189968C546.55 -0.0181347 545.764 0.126729 545.038 0.442677C543.469 1.13574 542.166 2.32894 541.326 3.84123C540.902 4.6339 540.68 5.52096 540.678 6.42252C540.686 7.15796 540.835 7.88481 541.119 8.56169L521.434 8.58849L506.902 8.63315L493.885 8.68674L482.875 8.74925L70.3894 8.80731L69 8.86984L70.3894 8.93236L482.875 8.99042L493.885 9.05293L506.902 9.11099L521.434 9.15565H535.5C532.677 9.70942 530.061 11.3038 528.718 13.9788C528.408 14.6606 528.133 15.3582 527.894 16.0689C527.507 17.0826 526.794 18.5296 525.834 19.0967C525.365 19.3332 524.863 19.4944 524.345 19.5746C524.314 19.5804 524.285 19.5972 524.265 19.6221C524.244 19.647 524.233 19.6784 524.233 19.7108C524.233 19.7432 524.244 19.7746 524.265 19.7995C524.285 19.8244 524.314 19.8412 524.345 19.847H524.446C524.533 19.877 524.624 19.8936 524.715 19.8961C524.875 19.936 525.036 19.9673 525.199 19.9899C525.521 20.0257 525.842 20.0748 526.159 20.0882C526.755 20.0922 527.348 20.0095 527.921 19.8425C528.742 19.6567 529.497 19.2441 530.101 18.6502C530.244 19.4373 530.646 20.152 531.241 20.6777C531.936 21.2758 532.823 21.5938 533.734 21.5709C534.627 21.5495 535.478 21.1819 536.112 20.5437C536.411 20.2274 536.62 19.835 536.716 19.4081C536.813 18.9812 536.795 18.5357 536.662 18.1187C536.651 18.0857 536.628 18.0581 536.598 18.0412C536.567 18.0243 536.532 18.0192 536.498 18.0269C536.465 18.0346 536.435 18.0546 536.415 18.083C536.395 18.1115 536.386 18.1464 536.389 18.1812C536.468 18.8868 536.178 19.5523 535.403 19.5925C535.066 19.6191 534.728 19.5496 534.427 19.3917C534.127 19.2339 533.876 18.9941 533.703 18.6993C532.822 17.2479 534.007 15.7295 535.218 14.9881C535.906 14.5608 536.668 14.2713 537.464 14.1351C537.331 14.289 537.206 14.45 537.089 14.6175C536.887 14.9152 536.68 15.1965 536.468 15.4615C536.262 15.8113 536.037 16.1497 535.795 16.4753C535.768 16.5004 535.751 16.5335 535.745 16.5696C535.739 16.6057 535.744 16.6428 535.76 16.6755C535.777 16.7082 535.803 16.7346 535.835 16.7508C535.868 16.767 535.905 16.7722 535.94 16.7655C536.472 16.6011 537.045 16.6392 537.552 16.8727C537.97 17.0826 538.309 17.4086 538.714 17.6409C539.048 17.8705 539.448 17.9806 539.851 17.9535L540.159 17.9043C540.08 17.9892 539.996 18.0741 539.921 18.1634C539.442 18.6821 539.086 19.3051 538.881 19.9847C538.675 20.6643 538.626 21.3825 538.736 22.0844C538.878 22.7205 539.224 23.2904 539.721 23.7039C540.218 24.1173 540.837 24.3506 541.48 24.3665C541.986 24.3424 542.479 24.1888 542.911 23.9199C543.219 23.7591 543.647 23.5001 543.743 23.1295C543.832 23.0125 543.903 22.8831 543.955 22.7454C543.96 22.7253 543.959 22.7041 543.952 22.6846C543.945 22.6652 543.932 22.6485 543.915 22.6371C543.897 22.6257 543.877 22.6201 543.857 22.6211C543.836 22.6221 543.817 22.6296 543.801 22.6427C543.543 22.9149 543.201 23.0884 542.832 23.1339C542.61 23.1081 542.395 23.0346 542.203 22.9184C542.011 22.8021 541.846 22.6457 541.718 22.4596C541.132 21.7182 541.436 20.7893 541.947 20.1105C542.197 19.7617 542.517 19.4702 542.886 19.2548C543.255 19.0394 543.664 18.9049 544.087 18.8601C544.877 18.8705 545.652 19.0808 546.342 19.4719C546.988 19.789 547.69 19.9742 548.407 20.0167C547.821 20.4633 547.623 21.4101 547.553 22.0934C547.517 22.6791 547.642 23.2633 547.914 23.7815C548.066 24.1166 548.178 24.4689 548.248 24.831C548.275 24.9917 548.292 25.148 548.314 25.3088C548.361 25.5044 548.42 25.6968 548.491 25.8849C548.513 25.9608 548.627 26.0055 548.671 25.9206C548.825 25.608 548.944 25.2776 549.112 24.9739C549.334 24.6414 549.623 24.3612 549.961 24.1521C550.486 23.7859 551.084 23.5582 551.608 23.192C552.107 22.8527 552.515 22.3921 552.793 21.8522C552.884 21.6667 552.961 21.4741 553.022 21.2761C553.022 21.3699 553.048 21.4637 553.066 21.553C553.198 22.2541 553.189 22.9508 553.26 23.6609C553.37 24.7506 553.625 25.8403 553.757 26.9299C553.81 27.18 553.854 27.4301 553.894 27.6802L554.026 28.1625C554.049 28.1669 554.073 28.1669 554.097 28.1625C554.136 27.9526 554.18 27.7472 554.237 27.5418C554.24 27.5135 554.24 27.4852 554.237 27.4569C554.339 27.0103 554.414 26.5146 554.51 26.0502C554.656 25.3535 554.823 24.6657 555.004 23.9824C555.308 22.8124 555.66 21.6512 555.95 20.4767C555.993 20.9587 556.125 21.4283 556.338 21.8611C556.617 22.4022 557.026 22.8631 557.527 23.2009C558.047 23.5671 558.646 23.7949 559.17 24.1611C559.508 24.3701 559.797 24.6504 560.02 24.9828C560.196 25.2865 560.31 25.617 560.46 25.9296C560.504 26.0144 560.623 25.9698 560.64 25.8938C560.713 25.7064 560.772 25.5139 560.817 25.3177C560.839 25.157 560.856 25.0007 560.887 24.8399C560.953 24.4768 561.066 24.1239 561.222 23.7904C561.49 23.2711 561.613 22.6874 561.578 22.1023C561.508 21.419 561.31 20.4722 560.729 20.0256C561.444 19.9825 562.144 19.7974 562.789 19.4808C563.479 19.0898 564.254 18.8795 565.044 18.869C565.467 18.9138 565.876 19.0483 566.245 19.2637C566.614 19.4791 566.934 19.7707 567.184 20.1194C567.695 20.7983 567.999 21.7272 567.413 22.4685C567.285 22.6546 567.12 22.811 566.928 22.9273C566.736 23.0436 566.521 23.117 566.299 23.1429C565.93 23.0966 565.588 22.9232 565.33 22.6516C565.315 22.6368 565.295 22.6278 565.274 22.626C565.253 22.6242 565.232 22.6297 565.215 22.6417C565.197 22.6537 565.184 22.6714 565.178 22.6919C565.172 22.7124 565.173 22.7344 565.181 22.7543C565.229 22.8937 565.3 23.0236 565.392 23.1384C565.484 23.5091 565.912 23.7681 566.22 23.9289C566.652 24.1977 567.145 24.3513 567.651 24.3754C568.294 24.3595 568.913 24.1263 569.41 23.7128C569.907 23.2994 570.254 22.7294 570.395 22.0934C570.505 21.3915 570.456 20.6733 570.25 19.9937C570.045 19.3141 569.689 18.6911 569.21 18.1723C569.135 18.083 569.056 17.9981 568.977 17.9133L569.281 17.9624C569.684 17.9891 570.086 17.8792 570.421 17.6498C570.822 17.4176 571.165 17.0916 571.579 16.8817C572.086 16.6482 572.659 16.6101 573.191 16.7745C573.227 16.7825 573.264 16.7784 573.298 16.7626C573.331 16.7469 573.358 16.7205 573.375 16.6874C573.392 16.6544 573.398 16.6166 573.392 16.5799C573.386 16.5431 573.368 16.5095 573.341 16.4842C573.096 16.1598 572.869 15.8213 572.663 15.4704C572.451 15.1936 572.244 14.9122 572.042 14.6264C571.967 14.5237 571.843 14.345 571.698 14.1798C572.43 14.3291 573.131 14.6072 573.768 15.0015C574.979 15.7429 576.168 17.2613 575.283 18.7127C575.109 19.0071 574.858 19.2467 574.558 19.4044C574.258 19.5622 573.92 19.632 573.583 19.6059C572.803 19.5657 572.517 18.9002 572.592 18.1946C572.596 18.1598 572.587 18.1249 572.566 18.0964C572.546 18.068 572.517 18.048 572.483 18.0403C572.449 18.0326 572.414 18.0377 572.384 18.0546C572.354 18.0715 572.331 18.0991 572.319 18.1321C572.186 18.5494 572.168 18.9954 572.266 19.4225C572.363 19.8496 572.574 20.2418 572.874 20.5571C573.507 21.1943 574.356 21.5618 575.248 21.5843C576.158 21.608 577.046 21.29 577.74 20.6911C578.338 20.1672 578.742 19.4519 578.885 18.6636C579.488 19.2573 580.241 19.67 581.06 19.8559C581.633 20.0223 582.226 20.105 582.822 20.1016C583.143 20.1016 583.465 20.0391 583.782 20.0033C583.945 19.9811 584.107 19.9498 584.266 19.9095C584.359 19.9067 584.451 19.8901 584.539 19.8604H584.641C584.673 19.8578 584.703 19.8437 584.726 19.8205C584.749 19.7972 584.763 19.7665 584.766 19.7337C584.769 19.7009 584.76 19.6683 584.741 19.6416C584.722 19.6149 584.694 19.5959 584.663 19.588C584.145 19.5078 583.643 19.3466 583.174 19.1101C582.214 18.543 581.501 17.096 581.109 16.0823C580.84 15.3811 580.624 14.6621 580.29 13.9922C578.942 11.3127 576.326 9.71388 573.486 9.16458H584.561L599.094 9.11993L612.115 9.06634L623.125 9.00381L1035.61 8.94575L1037 8.87877L1036.31 8.8475L1035.61 8.81624L623.195 8.73586ZM557.294 10.558C557.493 10.6653 557.701 10.7564 557.915 10.8304L557.994 10.8616C559.534 11.5193 561.259 11.5766 562.838 11.0224C563.654 10.7569 564.394 10.2923 564.992 9.66942C565.59 9.04652 566.028 8.28433 566.268 7.44967C566.268 7.39608 566.299 7.3425 566.312 7.28891C566.889 5.28372 565.432 2.23352 563.12 2.1442C562.749 2.13771 562.385 2.24122 562.072 2.44199C561.759 2.64275 561.511 2.93199 561.358 3.27407C561.242 3.58679 561.198 3.92213 561.228 4.25479C561.259 4.58745 561.364 4.90873 561.534 5.1944C561.866 5.82074 562.401 6.31143 563.049 6.58329L563.129 6.6101C562.728 6.75077 562.298 6.77895 561.883 6.69168C561.468 6.60441 561.085 6.40492 560.773 6.11438C560.409 5.77649 560.139 5.34864 559.989 4.87286C559.89 4.43367 559.865 3.98077 559.914 3.53309C559.913 3.51752 559.907 3.50262 559.898 3.49063C559.888 3.47865 559.874 3.47024 559.859 3.4667C559.844 3.46316 559.829 3.46468 559.815 3.47102C559.801 3.47736 559.789 3.48817 559.782 3.50182C559.61 3.99508 559.629 4.53607 559.835 5.01577C560.008 5.53269 560.311 5.9946 560.715 6.35554C561.05 6.67572 561.468 6.89213 561.919 6.97918C562.371 7.06623 562.838 7.02029 563.265 6.84679L563.177 6.91823C562.806 7.23404 562.368 7.45847 561.898 7.57392C561.427 7.68936 560.936 7.6927 560.464 7.58366C559.6 7.38484 558.826 6.90108 558.262 6.20815C557.996 5.90749 557.793 5.5547 557.665 5.17146C557.538 4.78823 557.49 4.38266 557.523 3.97968C557.658 3.16159 558.067 2.4157 558.681 1.8673C559.273 1.29106 560.003 0.879759 560.798 0.673209C561.594 0.466659 562.428 0.471864 563.221 0.688309C564.054 0.943717 564.822 1.38118 565.47 1.9699C566.118 2.55861 566.631 3.28428 566.973 4.09579C567.338 4.89784 567.51 5.77647 567.475 6.65922C567.385 7.54998 567.092 8.40745 566.621 9.16458C565.784 10.6026 564.617 11.8664 562.979 12.2907C562.225 12.5011 561.438 12.5545 560.664 12.4478C559.889 12.3411 559.145 12.0765 558.474 11.67C557.887 11.291 557.36 10.8243 556.91 10.2855C557.03 10.388 557.158 10.4792 557.294 10.558ZM542.154 4.10025C542.496 3.28906 543.009 2.5637 543.657 1.97505C544.306 1.3864 545.073 0.94874 545.906 0.69278C546.698 0.475451 547.533 0.469806 548.329 0.676398C549.124 0.88299 549.854 1.29479 550.446 1.87177C551.064 2.4177 551.478 3.16153 551.622 3.97968C551.654 4.37843 551.606 4.77963 551.482 5.1594C551.358 5.53917 551.16 5.88976 550.899 6.1903C550.336 6.88322 549.561 7.36697 548.698 7.56579C548.225 7.67518 547.735 7.67201 547.264 7.55655C546.793 7.44109 546.355 7.21648 545.985 6.90038L545.892 6.82892C546.32 7.0028 546.788 7.04895 547.24 6.9619C547.693 6.87485 548.111 6.65824 548.447 6.33767C548.849 5.97551 549.152 5.514 549.327 4.9979C549.534 4.51824 549.552 3.97623 549.376 3.48397C549.368 3.47032 549.357 3.45949 549.343 3.45315C549.329 3.44681 549.313 3.44529 549.298 3.44883C549.283 3.45237 549.27 3.46078 549.26 3.47276C549.25 3.48475 549.244 3.49965 549.244 3.51522C549.295 3.96284 549.27 4.41613 549.169 4.85499C549.007 5.32907 548.724 5.75128 548.35 6.07865C548.038 6.36962 547.654 6.56937 547.239 6.65667C546.824 6.74396 546.394 6.71552 545.994 6.57436L546.077 6.54757C546.724 6.27547 547.258 5.78471 547.588 5.15868C547.758 4.87264 547.862 4.55163 547.893 4.2193C547.924 3.88696 547.882 3.55175 547.768 3.23833C547.614 2.89731 547.366 2.60902 547.053 2.40846C546.74 2.2079 546.377 2.10368 546.007 2.10846C543.695 2.19778 542.242 5.23459 542.814 7.25317C542.814 7.30676 542.845 7.36036 542.863 7.41395C543.102 8.24829 543.539 9.01034 544.137 9.63325C544.734 10.2562 545.473 10.7209 546.289 10.9867C547.876 11.5469 549.611 11.4896 551.159 10.8259L551.234 10.7946C551.45 10.7215 551.659 10.6304 551.859 10.5222C551.989 10.4519 552.113 10.3712 552.229 10.2811C551.781 10.8187 551.255 11.2853 550.67 11.6655C549.999 12.0722 549.253 12.3368 548.478 12.4435C547.703 12.5502 546.915 12.4967 546.161 12.2863C544.527 11.8397 543.356 10.5803 542.524 9.16012C542.045 8.40444 541.743 7.54726 541.643 6.65475C541.612 5.77427 541.787 4.89883 542.154 4.10025ZM541.44 9.16905C541.788 9.8913 542.233 10.5615 542.761 11.1608C542.321 10.8973 541.881 10.6294 541.524 10.3793C540.727 9.82598 539.842 9.41513 538.908 9.16458L541.44 9.16905ZM534.553 14.6398C533.483 15.4168 532.668 16.5869 532.791 17.9669C532.853 18.5558 533.113 19.1051 533.528 19.5218C533.943 19.9385 534.487 20.197 535.068 20.2534C535.293 20.2775 535.52 20.2534 535.734 20.1826C535.949 20.1118 536.147 19.996 536.314 19.8425C536.193 20.0439 536.045 20.2273 535.874 20.3874C535.277 20.9645 534.496 21.3052 533.672 21.3476C533.275 21.3533 532.881 21.2725 532.517 21.1107C532.153 20.9489 531.828 20.7099 531.563 20.4097C531.28 20.0912 531.065 19.717 530.931 19.3106C530.797 18.9042 530.747 18.4742 530.783 18.0473C530.783 17.6007 530.198 17.6007 530.123 18.0115C530.123 18.0696 530.123 18.1321 530.101 18.1902C529.445 18.9017 528.591 19.3927 527.652 19.5969C527.109 19.7493 526.547 19.82 525.983 19.8068C525.829 19.8068 525.675 19.7845 525.521 19.7666L525.767 19.7041C526.301 19.5979 526.815 19.4128 527.296 19.1548C528.167 18.6407 528.873 17.8824 529.33 16.971C529.361 16.9085 529.264 16.8504 529.216 16.8951C528.568 17.5649 528.022 18.3063 527.234 18.8109C526.825 19.0544 526.378 19.2265 525.913 19.32L525.763 19.3558C526.034 19.2271 526.294 19.0778 526.543 18.9092C526.983 18.5876 527.366 17.7882 527.643 17.3059C527.921 16.8236 528.247 16.1984 528.546 15.6491C529.177 14.4244 529.939 13.2742 530.819 12.2193C532.294 10.5356 534.976 9.62904 537.151 9.59332C538.935 9.56652 541.81 11.4556 543.466 12.188C543.735 12.3086 544.082 12.447 544.479 12.5855C544.58 12.639 544.677 12.7016 544.783 12.7507C545.587 13.1162 546.46 13.2976 547.341 13.2821C548.85 13.3618 550.328 12.8337 551.454 11.8129C551.942 11.409 552.364 10.9297 552.705 10.3927C552.846 10.2007 552.982 10.0042 553.106 9.80321C553.193 9.60655 553.265 9.40351 553.321 9.19584C553.395 9.01401 553.457 8.82754 553.506 8.63761C553.504 9.32657 553.363 10.0078 553.094 10.6403C552.825 11.2728 552.432 11.8433 551.939 12.3175C550.719 13.5448 549.1 14.2798 547.385 14.3852C545.571 14.5013 543.713 13.9386 542.101 13.1348C541.273 12.7328 540.498 12.2416 539.644 11.8799C538.908 11.5962 538.12 11.4848 537.336 11.5538C534.967 11.7235 532.492 13.1258 531.897 15.5955C531.413 17.6364 532.038 20.7715 534.623 20.6598C534.764 20.6598 534.782 20.441 534.623 20.432C534.277 20.4365 533.933 20.3659 533.616 20.2249C533.299 20.084 533.014 19.876 532.783 19.6148C532.396 19.0919 532.149 18.4766 532.065 17.8284C531.93 17.1682 531.934 16.4864 532.079 15.8281C532.223 15.1698 532.503 14.5501 532.901 14.0101C533.841 12.9175 535.125 12.1898 536.535 11.9513C537.286 11.7876 538.062 11.78 538.816 11.929C539.705 12.1897 540.556 12.5681 541.348 13.0544C543.99 14.4299 547.042 15.1712 549.887 14.0101C551.745 13.2509 553.678 11.3305 553.819 9.26283C553.837 9.43253 553.85 9.60224 553.859 9.77195C553.921 10.6203 553.788 11.4718 553.471 12.2595C553.081 13.0739 552.535 13.8012 551.864 14.3986C551.207 15.0527 550.457 15.6036 549.64 16.0331C548.777 16.5007 547.794 16.6923 546.822 16.5824C545.83 16.4494 544.862 16.1743 543.946 15.7652C543.039 15.3811 542.215 14.8095 541.343 14.3406C540.524 13.8817 539.628 13.579 538.701 13.4474C537.222 13.3292 535.751 13.7522 534.553 14.6398ZM539.516 17.6096C539.096 17.4543 538.707 17.2244 538.366 16.9308C538.081 16.7009 537.752 16.5335 537.399 16.4389C537.047 16.3444 536.679 16.3248 536.319 16.3815C536.394 16.2341 536.455 16.0778 536.513 15.9349C536.677 15.626 536.883 15.342 537.125 15.0908C537.296 14.8631 537.451 14.6219 537.644 14.4031C537.747 14.2897 537.864 14.1906 537.992 14.1083C538.905 14.0685 539.817 14.2205 540.67 14.5549C541.345 14.8198 542.004 15.1256 542.642 15.4704L542.259 15.3588C541.816 15.2078 541.356 15.1162 540.89 15.0864C540.375 15.0902 539.86 15.123 539.349 15.1846C539.111 15.2069 538.869 15.2337 538.635 15.2695C538.404 15.3494 538.178 15.4418 537.957 15.5464C537.944 15.5464 537.932 15.5515 537.923 15.5607C537.914 15.57 537.909 15.5825 537.909 15.5955C537.909 15.6085 537.914 15.621 537.923 15.6302C537.932 15.6394 537.944 15.6446 537.957 15.6446C538.108 15.654 538.259 15.6265 538.397 15.5642C538.646 15.4789 538.906 15.4308 539.168 15.4213C539.728 15.3789 540.29 15.3789 540.85 15.4213C541.316 15.4883 541.771 15.619 542.202 15.8098C542.394 15.8817 542.589 15.9428 542.788 15.9929C541.957 16.3917 541.198 16.9291 540.542 17.5828C540.208 17.6811 539.854 17.6903 539.516 17.6096ZM545.681 18.7707C545.002 18.4632 544.231 18.4359 543.532 18.6948C542.844 18.9664 542.237 19.4141 541.771 19.9944C541.533 20.2624 541.356 20.5789 541.249 20.9225C541.143 21.2661 541.11 21.6288 541.154 21.9862C541.241 22.3458 541.415 22.6778 541.661 22.9522C541.906 23.2266 542.215 23.4348 542.559 23.5582C542.676 23.6034 542.799 23.6261 542.924 23.6252L542.687 23.7458C542.284 23.973 541.826 24.0798 541.365 24.0539C540.764 23.9772 540.203 23.7045 539.767 23.2768C539.328 22.8216 539.078 22.2122 539.071 21.5753C539.042 20.9459 539.141 20.3171 539.362 19.728C539.582 19.1388 539.919 18.6018 540.353 18.15C541.195 17.2032 542.254 16.4795 543.435 16.0421C543.464 16.0323 543.49 16.0139 543.509 15.9893C543.528 15.9646 543.539 15.9348 543.541 15.9036C544.34 16.2647 545.172 16.5473 546.025 16.7477C546.635 16.8985 547.265 16.9542 547.892 16.9129C548.569 16.8355 549.225 16.6279 549.825 16.3011C550.985 15.6901 552.014 14.8505 552.85 13.8314C553.232 13.3839 553.547 12.883 553.788 12.3443C553.735 12.5274 553.683 12.715 553.621 12.9025C553.359 13.4743 553.065 14.0305 552.74 14.5683C552.314 15.2184 551.77 15.7807 551.137 16.2252C550.539 16.6466 549.879 16.9706 549.182 17.1853C548.363 17.3847 547.512 17.415 546.681 17.2747C545.161 17.1228 543.563 16.9933 542.202 17.815C541.632 18.1688 541.128 18.6224 540.714 19.1548C540.268 19.6908 539.965 20.3333 539.833 21.0216C539.833 21.0573 539.873 21.0617 539.886 21.0216C540.174 20.3054 540.582 19.6452 541.092 19.07C541.587 18.4968 542.198 18.0396 542.885 17.7302C544.417 17.0692 546.205 17.5739 547.799 17.6007C549.217 17.6108 550.596 17.1391 551.719 16.2609C552.311 15.7977 552.803 15.2154 553.163 14.5505C553.123 14.738 553.092 14.9301 553.062 15.1221C553.013 15.4436 552.978 15.7697 552.952 16.0957C552.732 16.8058 552.371 17.463 551.892 18.0267C551.412 18.5903 550.824 19.0487 550.164 19.3736C549.432 19.6962 548.619 19.7789 547.839 19.6103C547.093 19.3974 546.368 19.1164 545.672 18.7707H545.681ZM552.916 20.9501C552.828 21.313 552.687 21.6607 552.498 21.9817C552.147 22.5096 551.68 22.947 551.133 23.259C550.593 23.5538 550.075 23.8882 549.583 24.2593C549.199 24.6256 548.898 25.0721 548.702 25.5678C548.702 25.3847 548.702 25.1972 548.658 25.0275C548.628 24.7365 548.565 24.4502 548.469 24.1745C548.212 23.6593 548.027 23.1108 547.918 22.5444C547.869 22.0774 547.931 21.6054 548.098 21.1674C548.265 20.7294 548.532 20.338 548.878 20.0256C549.493 19.974 550.092 19.7994 550.64 19.5121C551.42 19.1004 552.084 18.4932 552.568 17.748L552.445 18.083C552.207 18.6639 551.912 19.219 551.564 19.7398C551.204 20.2636 550.805 20.7592 550.371 21.2225C550.094 21.6451 549.841 22.0835 549.614 22.5355C549.606 22.5462 549.602 22.5594 549.602 22.5728C549.603 22.5862 549.608 22.599 549.617 22.609C549.626 22.619 549.637 22.6256 549.651 22.6277C549.664 22.6298 549.677 22.6271 549.688 22.6203C550.129 22.3435 550.265 21.7272 550.622 21.3342C551.084 20.8652 551.511 20.3622 551.899 19.8291C552.272 19.2871 552.589 18.708 552.846 18.1008C552.865 18.0496 552.881 17.9974 552.894 17.9445C552.894 18.4581 552.894 18.9672 552.894 19.4719C552.894 19.8202 552.925 20.173 552.956 20.5214C552.952 20.665 552.939 20.8082 552.916 20.9501ZM554.801 23.9065C554.607 24.5853 554.431 25.2463 554.268 25.9564C554.268 26.0278 554.237 26.1037 554.22 26.1752C554.193 25.684 554.317 25.157 554.321 24.6791C554.321 23.9556 554.387 23.2366 554.44 22.5132C554.576 20.9542 554.621 19.3883 554.572 17.824C554.572 17.8109 554.567 17.7984 554.558 17.7892C554.549 17.78 554.537 17.7748 554.524 17.7748C554.511 17.7748 554.499 17.78 554.489 17.7892C554.48 17.7984 554.475 17.8109 554.475 17.824C554.33 19.3781 554.224 20.9501 554.132 22.4998C554.083 23.2634 554.039 24.0226 554.044 24.7863C554.044 25.1391 553.995 25.5053 553.986 25.8671C553.907 25.6527 553.846 25.4315 553.806 25.2061C553.603 23.7457 553.366 22.0398 553.247 20.4856C553.257 20.3181 553.246 20.1498 553.211 19.9855C553.211 19.8202 553.189 19.6505 553.181 19.4897C553.096 18.0485 553.164 16.6022 553.383 15.1757C553.501 14.4686 553.666 13.7703 553.876 13.0857C554.102 12.4852 554.195 11.8419 554.149 11.201C554.192 10.9691 554.223 10.735 554.242 10.4999C554.337 9.57953 554.173 8.6507 553.771 7.82035C553.75 7.66795 553.713 7.51824 553.661 7.37376C553.518 6.86739 553.518 6.33047 553.661 5.82409C553.777 5.34342 553.932 4.87301 554.123 4.41734C554.211 4.18511 554.317 3.97075 554.422 3.73406V3.69832C554.528 3.89579 554.647 4.08535 554.779 4.2655C555.008 4.59085 555.215 4.93098 555.4 5.28372C555.582 5.6719 555.68 6.09535 555.686 6.52524C555.653 6.90969 555.57 7.28805 555.44 7.65065C554.96 8.50656 554.759 9.49458 554.867 10.4731C554.9 10.9882 555.008 11.4954 555.189 11.9781C555.194 12.1603 555.225 12.3408 555.281 12.514C555.36 12.8445 555.387 13.2018 555.453 13.5412C555.585 14.2021 555.748 14.8586 555.893 15.5196C556.164 16.9339 556.164 18.388 555.893 19.8024C555.604 21.1955 555.239 22.5716 554.801 23.9244V23.9065ZM561.354 22.5444C561.247 23.1114 561.062 23.6601 560.803 24.1745C560.711 24.4514 560.648 24.7373 560.614 25.0275C560.588 25.1972 560.588 25.3847 560.574 25.5678C560.375 25.0738 560.074 24.628 559.694 24.2593C559.2 23.8881 558.681 23.5538 558.139 23.259C557.592 22.9483 557.126 22.5106 556.778 21.9817C556.58 21.6629 556.432 21.3149 556.338 20.9501C556.298 20.6166 556.234 20.2866 556.144 19.9631C556.144 19.9363 556.144 19.9095 556.144 19.8827C556.278 19.2962 556.356 18.698 556.378 18.0964C556.378 18.0964 556.378 18.0964 556.378 18.1187C556.635 18.7259 556.952 19.305 557.324 19.847C557.734 20.3823 558.183 20.8854 558.668 21.352C559.02 21.7361 559.148 22.3613 559.601 22.6382C559.612 22.643 559.625 22.6441 559.637 22.6412C559.649 22.6383 559.659 22.6316 559.667 22.6221C559.675 22.6126 559.68 22.6008 559.681 22.5885C559.681 22.5761 559.678 22.5638 559.672 22.5534C559.446 22.1004 559.193 21.662 558.914 21.2404C558.482 20.7759 558.083 20.2804 557.721 19.7577C557.371 19.238 557.076 18.6827 556.84 18.1008C556.796 17.9892 556.756 17.8776 556.717 17.7659C557.199 18.5109 557.862 19.1182 558.641 19.5299C559.189 19.8173 559.788 19.9918 560.403 20.0435C560.747 20.3568 561.013 20.7485 561.178 21.1865C561.343 21.6244 561.404 22.096 561.354 22.5623V22.5444ZM570.196 21.5575C570.189 22.1933 569.941 22.802 569.505 23.259C569.077 23.6989 568.519 23.9857 567.915 24.0762C567.455 24.1019 566.997 23.9951 566.594 23.7681L566.356 23.6475C566.481 23.6487 566.605 23.626 566.722 23.5805C567.066 23.4572 567.375 23.2489 567.62 22.9745C567.865 22.7001 568.039 22.3681 568.127 22.0085C568.171 21.6511 568.139 21.2881 568.033 20.9444C567.926 20.6007 567.748 20.2842 567.51 20.0167C567.044 19.4364 566.437 18.9887 565.749 18.7171C565.05 18.4583 564.279 18.4855 563.6 18.7931C562.895 19.1591 562.157 19.4581 561.398 19.6863C560.617 19.8548 559.805 19.7721 559.073 19.4496C558.426 19.1345 557.849 18.69 557.376 18.1428C556.903 17.5955 556.544 16.9569 556.32 16.2654C556.32 16.1314 556.29 16.0019 556.268 15.8724C556.188 15.3588 556.061 14.8586 555.942 14.354C556.309 15.1298 556.848 15.8086 557.518 16.3368C558.641 17.2138 560.02 17.6854 561.438 17.6766C563.032 17.6498 564.82 17.1451 566.352 17.8061C567.039 18.1167 567.652 18.5736 568.149 19.1459C568.657 19.7212 569.064 20.3815 569.351 21.0975C569.351 21.1243 569.413 21.1198 569.408 21.0975C569.276 20.4093 568.973 19.7667 568.527 19.2307C568.112 18.6994 567.609 18.246 567.039 17.891C565.674 17.0692 564.075 17.1987 562.56 17.3506C561.729 17.491 560.879 17.4606 560.059 17.2613C559.362 17.0474 558.702 16.7234 558.104 16.3011C557.469 15.8591 556.925 15.2964 556.501 14.6442C556.217 14.1847 555.96 13.709 555.73 13.2196C555.883 13.4596 556.051 13.6893 556.232 13.9074C557.071 14.9256 558.101 15.7649 559.262 16.377C559.861 16.7032 560.516 16.9108 561.191 16.9888C561.819 17.0301 562.45 16.9744 563.062 16.8236C563.964 16.6181 564.842 16.3188 565.683 15.9304C565.679 15.9435 565.679 15.9575 565.683 15.9706C565.68 16.005 565.688 16.0394 565.706 16.0685C565.725 16.0976 565.752 16.1197 565.784 16.1314C566.965 16.5688 568.024 17.2925 568.867 18.2393C569.298 18.6759 569.639 19.1964 569.867 19.7697C570.096 20.3429 570.208 20.9571 570.196 21.5753V21.5575ZM572.156 15.0685C572.395 15.3209 572.6 15.6048 572.764 15.9126C572.821 16.0599 572.883 16.2162 572.958 16.3591C572.598 16.3007 572.23 16.3193 571.878 16.4139C571.527 16.5086 571.198 16.677 570.914 16.9085C570.572 17.2013 570.181 17.431 569.76 17.5873C569.416 17.6706 569.056 17.6598 568.717 17.556C568.059 16.9032 567.298 16.3659 566.467 15.9661C566.666 15.916 566.863 15.8549 567.057 15.783C567.486 15.5916 567.94 15.4609 568.404 15.3945C568.964 15.3521 569.526 15.3521 570.086 15.3945C570.349 15.404 570.608 15.4521 570.857 15.5374C570.996 15.599 571.146 15.6266 571.297 15.6178C571.31 15.6178 571.323 15.6126 571.332 15.6034C571.341 15.5942 571.346 15.5817 571.346 15.5687C571.346 15.5557 571.341 15.5432 571.332 15.534C571.323 15.5247 571.31 15.5196 571.297 15.5196C571.075 15.415 570.847 15.3226 570.615 15.2427C570.381 15.2069 570.139 15.1802 569.906 15.1578C569.393 15.096 568.877 15.0632 568.36 15.0596C567.894 15.0899 567.434 15.1814 566.991 15.332C566.775 15.4001 566.556 15.4567 566.334 15.5017C567.015 15.1374 567.714 14.8124 568.431 14.5281C569.333 14.1625 570.306 14.0098 571.275 14.0815C571.398 14.1604 571.511 14.255 571.61 14.3629C571.826 14.6174 571.98 14.8586 572.156 15.0864V15.0685ZM578.255 12.188C579.134 13.2429 579.894 14.3932 580.523 15.6178C580.827 16.1671 581.113 16.7298 581.404 17.2747C581.695 17.8195 582.047 18.5564 582.509 18.8779C582.756 19.0465 583.015 19.1958 583.284 19.3245L583.135 19.2888C582.669 19.1949 582.223 19.0228 581.813 18.7797C581.021 18.275 580.492 17.5337 579.827 16.8638C579.783 16.8191 579.686 16.8638 579.717 16.9397C580.175 17.8727 580.895 18.6468 581.787 19.1637C582.267 19.4224 582.782 19.6076 583.315 19.713L583.562 19.7756C583.408 19.7756 583.253 19.8113 583.121 19.8158C582.556 19.8286 581.993 19.7579 581.448 19.6059C580.51 19.4027 579.657 18.9115 579.004 18.1991C579.004 18.141 579.004 18.0785 578.982 18.0205C578.903 17.6096 578.295 17.6096 578.317 18.0562C578.354 18.4828 578.305 18.9127 578.171 19.319C578.038 19.7254 577.824 20.0997 577.542 20.4187C577.277 20.7186 576.951 20.9575 576.587 21.1192C576.224 21.281 575.83 21.3619 575.432 21.3565C574.609 21.3149 573.827 20.9741 573.231 20.3963C573.059 20.2372 572.91 20.0537 572.79 19.8515C572.959 20.0048 573.157 20.1205 573.373 20.1913C573.588 20.2621 573.816 20.2863 574.041 20.2623C574.621 20.2049 575.165 19.946 575.579 19.5294C575.993 19.1128 576.252 18.564 576.313 17.9758C576.454 16.5958 575.635 15.4258 574.552 14.6487C573.338 13.7458 571.841 13.3219 570.342 13.4563C569.415 13.5884 568.519 13.8911 567.7 14.3495C566.819 14.8184 566.009 15.3901 565.097 15.7741C564.183 16.1828 563.216 16.4579 562.226 16.5914C561.252 16.7021 560.267 16.5106 559.403 16.0421C558.586 15.6116 557.837 15.0608 557.179 14.4076C556.511 13.8088 555.966 13.0817 555.576 12.2684C555.258 11.481 555.124 10.6296 555.184 9.78087C555.184 9.61117 555.197 9.44147 555.224 9.27177C555.369 11.3529 557.302 13.2598 559.161 14.019C562.001 15.1802 565.066 14.4388 567.7 13.0633C568.49 12.5771 569.34 12.1987 570.227 11.9379C570.981 11.789 571.757 11.7966 572.508 11.9602C573.919 12.1958 575.204 12.9241 576.141 14.019C576.54 14.5587 576.822 15.1782 576.967 15.8365C577.112 16.4948 577.117 17.1768 576.983 17.8374C576.899 18.4855 576.652 19.1008 576.265 19.6237C576.033 19.8849 575.749 20.0929 575.431 20.2339C575.114 20.3748 574.771 20.4454 574.424 20.441C574.398 20.4462 574.375 20.4604 574.358 20.4812C574.341 20.502 574.332 20.528 574.332 20.5549C574.332 20.5817 574.341 20.6078 574.358 20.6285C574.375 20.6493 574.398 20.6635 574.424 20.6687C577.009 20.7804 577.634 17.6453 577.154 15.6044C576.569 13.1348 574.072 11.7325 571.716 11.5628C570.932 11.4934 570.143 11.6048 569.408 11.8888C568.554 12.2371 567.774 12.7418 566.947 13.1437C565.322 13.9252 563.468 14.5103 561.662 14.3942C559.948 14.2901 558.33 13.5548 557.113 12.3264C556.625 11.8461 556.238 11.2703 555.975 10.634C555.713 9.99771 555.58 9.314 555.585 8.62421C555.634 8.81289 555.696 8.99793 555.77 9.17799C555.826 9.38808 555.899 9.59281 555.99 9.78981C556.113 9.99078 556.25 10.1873 556.391 10.3793C556.73 10.9162 557.151 11.3955 557.637 11.7995C558.763 12.8203 560.242 13.3484 561.75 13.2687C562.631 13.2846 563.505 13.1032 564.309 12.7373C564.414 12.6882 564.516 12.6257 564.617 12.5721C565.009 12.4336 565.361 12.2952 565.625 12.1746C567.281 11.4422 570.157 9.55312 571.94 9.57992C574.081 9.61565 576.78 10.5222 578.255 12.2059V12.188ZM567.589 10.3614C567.224 10.6115 566.797 10.8795 566.356 11.143C566.885 10.5421 567.329 9.87037 567.678 9.14672H570.21C569.273 9.40239 568.387 9.8193 567.589 10.3793V10.3614Z" fill="#C5903A"/>
<path d="M68.5141 8.53375C68.5141 8.53375 68.5676 8.53375 68.5944 8.53375C68.6212 8.53375 68.5409 8.49628 68.5141 8.53375Z" fill="#C5903A"/>
<path d="M24.0787 23.9236C24.4159 26.0082 26.4447 26.7845 28.2915 26.6379L28.2915 26.6107C26.4286 26.5782 24.6461 25.7367 24.3624 23.6901C24.2953 22.9903 24.3812 22.2841 24.614 21.6218C24.9751 20.7676 25.5095 20 26.1824 19.3689C26.1903 19.3604 26.195 19.3493 26.1955 19.3376C26.196 19.3259 26.1924 19.3144 26.1853 19.3052C26.1781 19.296 26.168 19.2897 26.1566 19.2874C26.1453 19.2852 26.1336 19.2871 26.1235 19.293C25.3693 19.7731 24.7724 20.4694 24.4084 21.2937C24.0444 22.1179 23.9297 23.0332 24.0787 23.9236Z" fill="#C5903A"/>
<path d="M26.0647 25.243C26.0005 25.243 25.9576 25.3136 26.0005 25.3625C26.8034 26.2256 28.4307 26.0845 29.405 25.6719C29.4371 25.6719 29.405 25.6122 29.405 25.623C28.7814 25.7862 28.133 25.8286 27.4939 25.7479C27.0018 25.6293 26.5229 25.4602 26.0647 25.243Z" fill="#C5903A"/>
<path d="M27.9436 25.183C28.3136 25.198 28.6815 25.1197 29.0143 24.955C29.2926 24.841 29.6084 24.7596 29.7048 24.4447C29.7048 24.4121 29.6673 24.3796 29.6459 24.4121C29.2284 24.8898 28.4468 24.8681 27.9169 25.0961C27.9062 25.1124 27.8901 25.1776 27.9436 25.183Z" fill="#C5903A"/>
<path d="M35.0096 20.6339C35.6342 21.2327 36.219 21.8729 36.76 22.5502C37.0651 22.99 37.2579 23.3265 37.3382 23.4188C37.4184 23.5111 37.4666 23.5274 37.5148 23.522C38.1304 24.358 38.6818 25.1505 39.2492 25.8563C48.6866 37.669 71.56 22.3277 68.8996 9.20126C68.8996 9.0004 68.8407 8.51182 68.6534 8.51724C68.6338 8.51993 68.614 8.51993 68.5945 8.51724C68.6549 8.61273 68.695 8.71999 68.7122 8.83211C68.6801 11.7201 68.8353 14.923 66.1642 18.9891C61.4375 26.2091 52.5943 30.0689 46.8933 29.5532C42.0488 29.1189 39.64 25.498 38.0876 23.1745C37.8413 22.8126 37.579 22.4507 37.3007 22.0888C36.6151 20.7397 35.5316 19.6409 34.2013 18.9456C29.0891 14.7982 22.3229 13.4356 19.8498 18.1585C19.5554 18.7013 19.277 19.5428 18.5276 19.5808C17.9923 19.6079 17.0502 18.5548 17.9334 16.9859C19.1272 14.8633 23.8218 12.5453 30.4328 14.9882C33.2966 16.0413 36.4656 18.8588 36.4656 18.8588C36.5673 18.9294 36.8243 16.9859 36.7975 17.1053C37.1264 15.9576 37.722 14.9065 38.5342 14.0403C39.3464 13.1742 40.3515 12.5181 41.4653 12.1273C44.2329 11.2533 47.3215 13.7559 45.6889 15.6613C45.3516 16.0522 44.8966 16.5842 44.6504 16.2585C45.1107 12.9416 41.096 12.2413 39.0725 14.9122C35.3789 19.7979 40.2663 28.9234 49.1202 28.7117C55.0834 28.5652 66.2498 22.4471 68.0538 11.769C68.1992 11.2502 68.3012 10.72 68.3589 10.1838C68.3611 10.1533 68.3527 10.123 68.3351 10.0982C68.3175 10.0734 68.2918 10.0557 68.2626 10.0481L68.2626 9.83639C68.3268 9.70611 68.3857 8.7181 68.5035 8.51724C68.2305 8.55524 68.1234 8.6801 68.0699 8.98953C68.0431 8.98953 68.0217 8.98953 68.0217 8.98953C67.9828 8.97632 67.9413 8.97338 67.901 8.98098C67.8608 8.98858 67.8231 9.00648 67.7915 9.03297C67.7217 9.08214 67.6587 9.14057 67.6042 9.20669L67.4382 9.38583L67.2723 9.58668C67.1561 9.72354 67.0328 9.85401 66.9029 9.97754C66.4543 10.3546 65.8776 10.5379 65.297 10.4878C64.6792 10.4813 64.0794 10.276 63.584 9.90155C63.3227 9.65602 63.1123 9.36004 62.9653 9.03098C62.8182 8.70192 62.7374 8.3464 62.7276 7.98525C62.6312 7.15467 62.6044 6.35665 62.5134 5.61836C62.4369 5.08135 62.2893 4.55728 62.0745 4.06035C62.0011 3.84417 61.8848 3.64549 61.733 3.47652C61.5811 3.30755 61.3967 3.17186 61.1912 3.07777C61.1484 3.07777 61.0521 3.07776 60.9932 3.20805C60.6452 3.8812 59.9814 4.86378 59.6281 5.69979C59.6286 5.59756 59.6179 5.49559 59.596 5.39579C59.5593 5.21019 59.4845 5.0345 59.3766 4.88008C59.2825 4.73772 59.1669 4.6113 59.034 4.5055C58.7297 4.27737 58.3713 4.13508 57.9951 4.09312C57.619 4.05116 57.2386 4.11103 56.8928 4.26664C55.836 4.66687 54.9095 5.35653 54.2162 6.25893C53.879 6.6721 53.6408 7.15895 53.5204 7.68123C53.4347 8.14809 53.5471 8.55525 53.9593 8.6964C53.9593 8.6964 53.9593 8.75068 53.9593 8.74525C53.9822 8.75079 54.006 8.75079 54.0289 8.74525C54.0498 8.74327 54.0702 8.73698 54.0886 8.72678C54.1071 8.71659 54.1233 8.70268 54.1363 8.68593C54.1494 8.66917 54.1589 8.64992 54.1643 8.62932C54.1698 8.60872 54.1711 8.58721 54.1681 8.5661L54.1413 8.50096L54.1413 8.39781C54.1635 8.1629 54.2346 7.93545 54.3499 7.7305C54.4653 7.52555 54.6223 7.34777 54.8104 7.20894C54.9885 7.07165 55.1899 6.96861 55.4046 6.90494C55.5779 6.85146 55.7589 6.82761 55.9399 6.83437C56.3628 6.83437 56.5234 7.20895 56.5662 7.64324C56.609 8.07753 56.5341 8.54982 56.5662 8.99497C56.5812 9.29129 56.6559 9.58136 56.7857 9.84726C56.8395 9.97736 56.904 10.1027 56.9784 10.2218C57.0584 10.3634 57.1596 10.4916 57.2782 10.6018C57.243 10.613 57.2089 10.6275 57.1765 10.6453C56.8776 10.779 56.6201 10.9926 56.4315 11.2632C56.243 11.5337 56.1304 11.8512 56.1059 12.1816C56.075 12.4961 56.1153 12.8135 56.2236 13.1099C56.4643 13.6666 56.9128 14.104 57.4709 14.3259C57.7516 14.4482 58.044 14.541 58.3434 14.6027C58.4933 14.6353 58.6486 14.6625 58.7984 14.6842C58.9483 14.7059 59.0928 14.7222 59.2374 14.733C61.1642 14.8666 63.0823 14.3679 64.7082 13.3107C65.4797 12.8193 66.1974 12.2461 66.8494 11.6007L66.9083 11.5356L66.828 11.7093L66.6299 12.1056L66.5282 12.3064L66.4158 12.5019C65.8746 13.3701 65.1415 14.0987 64.2746 14.6299C63.3743 15.2397 62.3762 15.6861 61.3251 15.949C60.8148 16.0691 60.2887 16.1039 59.7673 16.0522C59.5116 16.0246 59.2577 15.9811 59.0072 15.9219L58.8145 15.873C58.7511 15.8564 58.6885 15.8365 58.6271 15.8133C58.5094 15.7699 58.3916 15.721 58.2738 15.6667C58.0437 15.5636 57.8188 15.4605 57.5994 15.3519L56.9516 15.0099L56.6412 14.847L56.3253 14.6733L56.0149 14.5104L55.7097 14.3584C55.0225 14.0314 54.3053 13.7732 53.5685 13.5876C52.7746 13.3634 51.9436 13.308 51.1276 13.4247C51.1015 13.4269 51.0763 13.4349 51.0536 13.4482C51.031 13.4615 51.0116 13.4797 50.9967 13.5015C50.9819 13.5233 50.972 13.5482 50.9678 13.5743C50.9635 13.6005 50.9651 13.6272 50.9723 13.6527C51.2185 14.4019 51.3149 15.5907 51.7003 16.4648C51.5815 16.3837 51.4561 16.3129 51.3256 16.253C51.0372 16.1226 50.733 16.0313 50.4209 15.9816C50.1076 15.93 49.7909 15.9028 49.4735 15.9002C48.2116 15.8313 46.9735 16.268 46.0261 17.1162C45.6123 17.5459 45.3131 18.0753 45.1567 18.6546C45.0003 19.2339 44.9919 19.8441 45.1322 20.4276C45.2439 20.9882 45.5028 21.5077 45.8816 21.9314C46.0627 22.1411 46.298 22.2954 46.5609 22.3769C46.8238 22.4584 47.1039 22.4639 47.3697 22.3928C47.3794 22.4012 47.3918 22.4058 47.4045 22.4058C47.4173 22.4058 47.4296 22.4012 47.4393 22.3928C47.4641 22.3781 47.483 22.355 47.4928 22.3277C47.5149 22.3189 47.5339 22.3036 47.5473 22.2838C47.5607 22.2639 47.5679 22.2404 47.5679 22.2164C47.5679 22.1923 47.5607 22.1688 47.5473 22.149C47.5339 22.1291 47.5149 22.1138 47.4928 22.1051L47.3965 22.0725L47.3162 21.9802C47.1214 21.8239 46.9764 21.6128 46.8993 21.3734C46.8222 21.1339 46.8164 20.8767 46.8826 20.6339C46.9718 20.3983 47.1082 20.184 47.2833 20.0046C47.4584 19.8252 47.6683 19.6845 47.8997 19.5916C48.1761 19.4863 48.474 19.4525 48.7666 19.4933C49.0591 19.534 49.337 19.6481 49.5752 19.8251C50.0391 20.1638 50.4857 20.5262 50.9134 20.9108C51.0795 21.0345 51.2591 21.1383 51.4487 21.2202C51.6414 21.3071 51.8449 21.3722 52.0376 21.4374C52.2408 21.5069 52.4482 21.5631 52.6585 21.6057C52.912 21.6614 53.1701 21.6923 53.4293 21.6979L53.3383 21.8011C53.1075 22.0367 52.9687 22.3491 52.9476 22.6805C52.9494 22.8702 52.991 23.0573 53.0694 23.2295C53.1478 23.4016 53.2614 23.555 53.4026 23.6794C53.4731 23.7534 53.5501 23.8206 53.6328 23.8803C53.7161 23.9426 53.8038 23.9988 53.8951 24.0485C54.0648 24.1497 54.2442 24.2333 54.4304 24.2983C54.5374 24.3308 54.6445 24.3634 54.7569 24.3905C54.8693 24.4177 54.9871 24.434 55.1048 24.4448C55.3427 24.4758 55.5824 24.4904 55.8222 24.4883C56.0694 24.478 56.316 24.4544 56.5609 24.4177C56.8136 24.3809 57.0639 24.3283 57.3103 24.2603C57.5619 24.1897 57.8135 24.1137 58.0597 24.0268C58.306 23.94 58.5468 23.8314 58.7824 23.7283C59.2438 23.5186 59.6925 23.2811 60.126 23.0171L60.3776 22.8705L60.6131 22.7077C60.7737 22.5991 60.9289 22.4851 61.0842 22.3765L61.309 22.2028C61.3465 22.1757 61.3893 22.1485 61.4214 22.1214L61.5071 22.0399L61.8443 21.7251C62.294 21.2962 62.7383 20.8294 63.1558 20.3462C63.9941 19.3772 64.7481 18.3365 65.4094 17.2356C66.0143 16.2313 66.5443 15.2107 67.0153 14.1902L66.9297 14.4942C64.3335 23.18 53.4829 28.2394 48.0977 28.0006C41.5992 27.7074 37.2043 20.9922 39.383 16.2367C40.277 14.2987 43.7886 12.4639 44.1526 16.3345C44.265 17.6048 45.4801 17.0565 46.3794 15.7373C47.0592 14.7385 46.7862 12.2956 43.6494 11.5193C40.9729 10.8516 37.9323 13.0339 36.5887 15.8025C36.0534 16.9642 36.1551 17.4311 36.2194 18.4354C33.8373 16.1228 33.0076 15.075 29.1052 13.8807C22.3015 11.7961 16.2151 15.341 16.7611 18.7013C17.077 20.6339 19.5661 21.4157 20.6153 18.1585C23.158 15.2867 26.8623 15.8242 30.315 17.4799C30.497 17.5722 30.6683 17.6591 30.8503 17.7513C19.5393 15.2813 21.1774 31.1818 29.1587 27.6369C30.9145 26.8551 31.9477 25.156 30.2293 23.1637C29.6619 22.5177 29.5656 23.6631 27.8847 24.1408C26.8569 24.434 25.963 23.6305 25.6257 22.7131C24.9352 20.8185 27.2959 17.5776 33.3234 19.7111C33.9321 19.9216 34.5019 20.2335 35.0096 20.6339ZM65.115 12.681C63.6065 13.6858 61.85 14.2406 60.0457 14.2824C59.4361 14.2924 58.8284 14.2119 58.2417 14.0436C57.957 13.9558 57.6852 13.8298 57.4334 13.669C57.1874 13.5099 56.9746 13.3033 56.8071 13.061C56.7205 12.9361 56.657 12.7963 56.6198 12.6484C56.5719 12.4718 56.5538 12.2883 56.5662 12.1056C56.5755 11.9143 56.6241 11.7271 56.7089 11.5561C56.7937 11.385 56.9129 11.2338 57.0587 11.1121C57.2928 10.9488 57.5567 10.8344 57.8349 10.7756L57.9259 10.7267C58.0182 10.6902 58.102 10.6348 58.1721 10.5638C58.2524 10.4878 58.2631 10.3358 58.2042 10.3033C58.1454 10.2707 57.958 10.1784 57.8402 10.1133C57.7152 10.0545 57.6053 9.96713 57.5191 9.85811C57.4144 9.72089 57.3264 9.57144 57.2568 9.41296C57.1854 9.23746 57.1299 9.05577 57.0908 8.8701C57.0458 8.45738 57.0333 8.04169 57.0533 7.62696C57.0629 7.44337 57.0329 7.25986 56.9654 7.08923C56.898 6.9186 56.7946 6.76493 56.6626 6.63894C56.4289 6.48364 56.1446 6.42713 55.8703 6.48151C55.5079 6.54421 55.1629 6.68489 54.8586 6.89409C54.5416 7.11072 54.2823 7.40352 54.1038 7.74639C54.0633 7.83062 54.0345 7.92013 54.0182 8.01239C53.9587 7.83806 53.9439 7.65123 53.9754 7.46952C54.1041 6.97516 54.3504 6.52035 54.6927 6.14494C55.0256 5.72165 55.4232 5.3551 55.8703 5.05921C56.2523 4.79966 56.6736 4.60528 57.1176 4.48378C57.4396 4.38844 57.7818 4.38892 58.1035 4.48516C58.4252 4.5814 58.7129 4.76935 58.9323 5.02664C59.0509 5.1526 59.1453 5.29987 59.2106 5.46093C59.287 5.65213 59.3234 5.85731 59.3177 6.06351C59.3177 6.21551 59.2856 6.40552 59.2856 6.5738C59.2856 6.74209 59.3123 6.88867 59.414 6.94838C59.414 6.94838 59.671 6.94838 59.6817 6.82895C59.7353 6.20579 59.908 5.59917 60.1902 5.04293C60.4579 4.50007 60.7898 3.95721 61.0788 3.38721C61.444 3.657 61.7157 4.03703 61.855 4.47293C62.0451 4.99956 62.1779 5.54566 62.2511 6.10152C62.3582 6.83981 62.3957 7.69752 62.5241 8.53353C62.595 9.16343 62.8946 9.744 63.3646 10.1621C63.7827 10.5025 64.2877 10.7153 64.8206 10.7756C65.4116 10.8912 66.0234 10.8172 66.571 10.5638C66.6563 10.5147 66.7385 10.4603 66.8173 10.401C66.8587 10.3751 66.898 10.3461 66.935 10.3141L67.0475 10.211L67.2508 9.9884C67.3204 9.9124 67.3793 9.82555 67.4436 9.74955L67.5828 9.54868C67.6363 9.47268 67.6898 9.38582 67.7487 9.31525C67.7992 9.25229 67.8587 9.19739 67.9253 9.1524C67.963 9.12649 68.0085 9.11496 68.0538 9.11983L68.0163 9.53239C67.7921 10.0865 67.467 10.593 67.0582 11.0253C66.4814 11.6576 65.8286 12.2139 65.115 12.681ZM67.1973 13.3216C66.7024 14.4084 66.1392 15.4619 65.5111 16.4756C64.8799 17.519 64.1732 18.5134 63.3967 19.4505L63.1023 19.7979L62.8025 20.1399L62.492 20.4765L62.1815 20.8022L61.8604 21.1225L61.5392 21.4319L61.3786 21.5785L61.2983 21.6545L61.1698 21.7522C61.0306 21.8608 60.8915 21.9694 60.7416 22.0725C60.5917 22.1757 60.5435 22.2191 60.4472 22.2897C60.3508 22.3602 60.2438 22.4362 60.1367 22.496C59.9226 22.6317 59.7031 22.762 59.4783 22.8922C59.3659 22.952 59.2534 23.0225 59.1357 23.0768L58.7877 23.2397C58.5522 23.3482 58.3113 23.4514 58.0651 23.5437C57.8188 23.636 57.5779 23.7011 57.3317 23.7717C57.2086 23.8043 57.0855 23.8314 56.9623 23.8585C56.8392 23.8857 56.7161 23.902 56.593 23.9182C56.3498 23.9532 56.105 23.9749 55.8596 23.9834C55.6198 23.9853 55.3802 23.9708 55.1423 23.94C54.6932 23.8849 54.2703 23.696 53.9272 23.3971C53.762 23.2784 53.6417 23.1061 53.5862 22.9087C53.5307 22.7113 53.5434 22.5005 53.6221 22.3114C53.7773 21.9422 54.0878 21.7957 54.3501 21.5297C54.3813 21.4991 54.4083 21.4644 54.4304 21.4265C54.5139 21.3486 54.5749 21.2492 54.607 21.1388C54.6445 21.0194 54.5107 20.9054 54.3983 20.9217C53.9487 21.0229 53.4881 21.0649 53.0279 21.0465C52.4948 20.975 51.9774 20.8136 51.4969 20.5688C51.0391 20.2825 50.6009 19.9651 50.1854 19.6188C49.7335 19.2721 49.1836 19.0818 48.617 19.0759C48.189 19.0824 47.7723 19.2159 47.4184 19.46C47.0645 19.7041 46.7889 20.0481 46.6257 20.4494C46.4784 20.8166 46.4784 21.2276 46.6257 21.5948C46.6644 21.6898 46.7207 21.7764 46.7916 21.8499C46.5767 21.7686 46.3788 21.6471 46.2081 21.4917C45.8592 21.0821 45.6474 20.5708 45.6032 20.0314C45.5107 19.3442 45.6468 18.6455 45.99 18.0457C46.3333 17.4459 46.864 16.9793 47.4982 16.7199C47.7637 16.608 48.04 16.5243 48.3226 16.4702C48.4671 16.4702 48.6116 16.4268 48.7562 16.4105C48.9007 16.3942 49.0399 16.3833 49.179 16.3779C49.4628 16.3779 49.7465 16.3779 50.0088 16.3779C50.3115 16.401 50.611 16.4555 50.9027 16.5407C51.1919 16.6276 51.4637 16.7654 51.7057 16.9479C52.0108 17.1976 52.348 17.6048 52.7763 17.5668C52.8191 17.5668 53.1135 17.3822 53.0279 17.3008C52.7745 17.071 52.5482 16.8123 52.3534 16.5299C52.1592 16.2403 52.0027 15.9264 51.8877 15.5962C51.6789 14.9882 51.5826 14.3476 51.3952 13.7396C52.186 13.7048 52.9769 13.8058 53.7345 14.0382C53.9218 14.087 54.1092 14.1467 54.2698 14.2119C54.3608 14.2499 54.4518 14.2824 54.5428 14.315C54.6338 14.3476 54.7248 14.3802 54.8158 14.4182C55.1905 14.5702 55.5384 14.7167 55.8864 14.8904C56.1059 14.9936 56.3146 15.0967 56.5341 15.2107L56.866 15.3845L57.1925 15.5527C57.4174 15.6613 57.6422 15.7808 57.8777 15.8893C58.1133 15.9979 58.3434 16.0956 58.5843 16.1933C58.6914 16.2313 58.7931 16.2693 58.9055 16.3019C59.0149 16.3311 59.1256 16.3547 59.2374 16.3725C59.6866 16.4483 60.1434 16.4666 60.597 16.4268C60.8271 16.4071 61.0558 16.3745 61.2822 16.329C63.1801 15.8674 64.8976 14.8386 66.2124 13.3759C66.3177 13.2488 66.4143 13.1146 66.5014 12.9741C66.5871 12.8384 66.6674 12.6973 66.7477 12.5561C66.828 12.415 66.8922 12.2684 66.9564 12.1219C67.0207 11.9753 67.0956 11.8341 67.1545 11.6821C67.2134 11.5301 67.3526 11.1718 67.481 10.8787C67.5105 10.8113 67.5445 10.746 67.5828 10.6833L67.7326 10.4607C67.7735 10.4051 67.8201 10.3541 67.8718 10.3087C67.8183 10.7918 67.7219 11.3944 67.5613 12.187C67.5025 12.5833 67.3579 12.9524 67.1973 13.3216ZM30.058 23.4948C30.4611 24.128 30.6228 24.8883 30.513 25.6337C30.1437 27.056 26.8783 28.2123 24.7853 26.448C22.2533 24.3254 22.703 15.759 32.1993 18.5602C32.301 18.5873 32.3973 18.6253 32.4937 18.6579C33.0518 19.0254 33.588 19.426 34.0996 19.8576C33.6658 19.6176 33.2083 19.4247 32.7346 19.2822C22.7244 16.2802 24.0787 28.158 30.058 23.4948Z" fill="#C5903A"/>
<path d="M66.6299 13.5062L66.5068 13.7179C66.4212 13.8537 66.3248 13.9948 66.2285 14.1305C66.1321 14.2662 66.0197 14.3911 65.9073 14.5159C65.7996 14.6468 65.6834 14.7701 65.5593 14.8851C65.4416 15.0045 65.3185 15.1239 65.19 15.2379C65.0615 15.3519 64.933 15.4605 64.8046 15.5691C64.5476 15.7917 64.2693 15.9925 64.0177 16.1988C62.833 17.1063 61.5508 17.8748 60.1956 18.4897L59.9494 18.6037L59.6871 18.7068C59.5104 18.7774 59.3338 18.848 59.1518 18.9131C59.0623 18.947 58.9712 18.976 58.8788 19L58.6111 19.0814C58.4291 19.1303 58.2471 19.1846 58.0758 19.228C57.9045 19.2714 57.7064 19.304 57.5405 19.3366C57.3746 19.3691 57.1765 19.4017 57.0052 19.418C56.8339 19.4343 56.6358 19.456 56.4699 19.4723C56.3789 19.4723 56.2879 19.4723 56.1969 19.4723L55.9185 19.4723C55.7419 19.4723 55.5652 19.4723 55.3832 19.4723C55.2012 19.4723 55.0353 19.4723 54.8479 19.4343C54.6606 19.3963 54.5053 19.4017 54.3126 19.38C54.1199 19.3583 53.97 19.3311 53.7773 19.2986C53.5846 19.266 53.424 19.2334 53.242 19.1845C53.06 19.1357 52.8994 19.0868 52.7067 19.038C52.3641 18.9403 52.0269 18.8208 51.6843 18.734C51.6361 18.734 51.6147 18.7937 51.6843 18.8208C51.9738 18.9995 52.2828 19.1434 52.605 19.2497C52.771 19.304 52.9369 19.3583 53.1028 19.4017C53.2688 19.4451 53.2688 19.4506 53.3544 19.4723L53.6007 19.5374C53.9616 19.628 54.3283 19.6933 54.698 19.7328L55.2333 19.7817C55.4261 19.7817 55.6134 19.7817 55.8061 19.7817C56.5785 19.7872 57.3489 19.7034 58.1026 19.532C58.2899 19.4886 58.4773 19.4288 58.67 19.38L58.9537 19.2931C59.048 19.2673 59.1409 19.2365 59.2321 19.2008L59.7674 18.9891L60.0404 18.8751L60.292 18.7611C61.6435 18.1597 62.915 17.3882 64.0765 16.4648C64.6575 15.9882 65.195 15.4594 65.6824 14.8851L66.0411 14.4399L66.207 14.2228C66.2659 14.1468 66.3195 14.0654 66.3676 13.9894C66.4721 13.8391 66.5686 13.6832 66.6567 13.5225C66.7442 13.3595 66.8211 13.1908 66.8869 13.0176L66.6781 13.2511L66.6299 13.5062Z" fill="#C5903A"/>
<path d="M66.9992 10.7105C66.9403 10.7105 66.8868 10.7539 66.8279 10.7756C66.7533 10.8523 66.6747 10.9248 66.5924 10.9928C66.5077 11.0576 66.4182 11.1157 66.3247 11.1665C66.2337 11.2153 66.1374 11.2642 66.041 11.3076C65.9448 11.3459 65.8465 11.3785 65.7466 11.4053C65.5468 11.4636 65.3428 11.5054 65.1364 11.5302C64.933 11.5628 64.7295 11.5736 64.5261 11.5953C63.6178 11.6545 62.707 11.5252 61.8496 11.2153C61.0239 10.9047 60.2736 10.4178 59.6495 9.7876C59.3539 9.47861 59.0918 9.13827 58.868 8.77245C58.7465 8.57596 58.6426 8.36885 58.5575 8.1536C58.4665 7.94188 58.3809 7.73015 58.2791 7.52929C58.2791 7.50215 58.2149 7.5293 58.2149 7.58902C58.2756 8.04829 58.4247 8.49098 58.6539 8.89188C58.8661 9.30903 59.1365 9.69298 59.4568 10.0319C60.0861 10.7074 60.8664 11.2194 61.7318 11.5248C62.604 11.8575 63.54 11.9819 64.4672 11.8885C64.9437 11.8457 65.4101 11.7247 65.8483 11.5302C66.0706 11.4407 66.2839 11.3298 66.4853 11.199C66.5858 11.135 66.6808 11.0624 66.769 10.9819C66.8534 10.8983 66.9304 10.8075 66.9992 10.7105Z" fill="#C5903A"/>
<path d="M0.884049 11.0848C1.51035 11.226 2.142 11.3345 2.76831 11.4648C3.69438 11.6603 4.60975 11.8937 5.52512 12.138C6.93297 12.518 8.32475 12.9523 9.7326 13.3269C9.25666 13.4173 8.79545 13.5744 8.36223 13.7937C7.64017 14.1747 7.02505 14.735 6.57431 15.4223C6.08183 16.1389 5.77671 16.964 5.28959 17.686C5.01035 18.1502 4.63613 18.5482 4.19221 18.8532C3.78538 19.0921 3.34644 19.2495 2.92355 19.4666C2.81649 19.5209 2.87002 19.6838 2.97173 19.7109C3.22311 19.8094 3.48061 19.891 3.74256 19.9552C3.95668 19.9824 4.17081 20.0095 4.37957 20.0475C4.86429 20.1411 5.33548 20.2961 5.78206 20.5089C6.47749 20.8768 7.25793 21.0474 8.04104 21.0029C9.11165 20.8889 10.6694 20.5361 11.0601 19.3743L11.2314 19.0921C11.6606 18.2439 12.1397 17.4227 12.6661 16.6329C13.1584 15.9772 13.7203 15.3782 14.3416 14.8469C14.6009 14.5941 14.8862 14.3702 15.1927 14.1791C15.4389 14.0434 15.6905 13.9837 15.9368 13.8751C16.108 13.8751 16.2793 13.8317 16.4721 13.8046C17.3714 13.6634 18.2439 13.392 19.1486 13.2129C19.8961 13.071 20.6358 12.8898 21.3647 12.67C21.4932 12.6428 21.6163 12.6103 21.7448 12.594C22.4087 12.51 23.078 12.4774 23.7468 12.4963C24.5931 12.5119 25.4329 12.649 26.2413 12.9034C26.8569 13.1097 27.4297 13.6417 28.1042 13.5983C28.2535 13.6543 28.4076 13.6961 28.5645 13.7231C29.18 13.8107 29.8073 13.7417 30.3899 13.5223C30.9603 13.28 31.4996 12.9683 31.9958 12.594C32.5176 12.3029 32.9953 11.9373 33.4144 11.5083C33.4351 11.4752 33.4476 11.4377 33.451 11.3987C33.4544 11.3597 33.4485 11.3205 33.4338 11.2843C33.4191 11.2481 33.396 11.216 33.3666 11.1908C33.3371 11.1655 33.3021 11.1478 33.2645 11.1391C33.1214 10.9599 32.9378 10.8184 32.7292 10.7265C32.4348 10.5583 32.1404 10.3954 31.8406 10.2434C31.2793 9.93856 30.6846 9.70171 30.0687 9.53768C29.4575 9.38788 28.8246 9.35109 28.2005 9.4291C28.0553 9.45135 27.9133 9.49146 27.7776 9.54853C27.2691 9.74152 26.7706 9.96077 26.2841 10.2054C25.4758 10.4598 24.6359 10.5969 23.7896 10.6126C23.1208 10.6342 22.4513 10.6015 21.7876 10.5148C21.6506 10.4955 21.5147 10.4684 21.3808 10.4334C20.924 10.3103 20.469 10.1692 20.0158 10.01C19.1692 9.73195 18.3006 9.52853 17.4195 9.40196C17.002 9.33682 16.5845 9.2934 16.1616 9.2554C16.1518 9.23554 16.1371 9.21868 16.1188 9.20654C15.8404 9.05997 15.546 9.0111 15.2623 8.85367C14.9571 8.66276 14.672 8.44085 14.4111 8.19137C13.7898 7.6581 13.2279 7.05737 12.7356 6.39993C12.207 5.61159 11.7278 4.79024 11.301 3.94077C11.2485 3.84563 11.1914 3.75322 11.1297 3.6639C10.739 2.49132 9.18124 2.13846 8.11063 2.03532C7.32773 1.98528 6.54631 2.15428 5.85165 2.52389C5.40532 2.73855 4.93411 2.89541 4.44916 2.99076C4.24039 3.02876 4.02627 3.05046 3.81215 3.08304C3.54965 3.1429 3.29198 3.22275 3.04132 3.3219C2.93961 3.34904 2.88608 3.51191 2.99314 3.57163C3.41603 3.78334 3.85498 3.9462 4.26181 4.18506C4.70671 4.48883 5.08115 4.88708 5.35918 5.35221C5.8463 6.06879 6.15142 6.89395 6.6439 7.61052C7.09339 8.29893 7.70881 8.85951 8.43181 9.23911C8.58169 9.31511 8.75299 9.3911 8.93499 9.46167L8.82794 9.46167C7.89116 9.64081 6.95973 9.62997 6.0176 9.72768C4.56157 9.87969 3.10555 10.2271 1.64418 10.4117C1.31229 10.4877 0.980402 10.5474 0.648514 10.6017L0.00615315 10.7808C-0.00205164 10.811 -0.00205164 10.8429 0.00615316 10.8731C0.28451 10.9274 0.541449 10.9926 0.835865 11.0686C0.851754 11.0745 0.867827 11.0799 0.884049 11.0848ZM14.2666 14.2932C13.5868 14.855 12.9805 15.5026 12.4626 16.2203C11.9071 17.0951 11.4013 18.0013 10.9477 18.9346C10.8567 19.1029 10.6212 19.3635 10.4874 19.6078C10.0713 19.9653 9.5889 20.235 9.06861 20.4009C8.54832 20.5669 8.00059 20.6257 7.45756 20.5741C6.69973 20.4258 5.96628 20.17 5.27888 19.8141C4.91053 19.6875 4.5302 19.6002 4.14404 19.5535C3.91386 19.5209 3.66227 19.5155 3.41603 19.4992C4.07637 19.2264 4.67275 18.8158 5.16647 18.2941C5.66284 17.6178 6.10839 16.9046 6.49937 16.1606C6.91381 15.4076 7.49918 14.7656 8.20698 14.2877C8.63685 14.0267 9.10217 13.8309 9.58806 13.7069C9.90925 13.6309 10.2625 13.6146 10.5891 13.5386C10.7336 13.5766 10.8728 13.6146 11.012 13.6472C11.6868 13.8001 12.3722 13.8999 13.0622 13.9457C12.371 14.2717 11.7084 14.6567 11.0816 15.0966C10.3732 15.6349 9.70578 16.2265 9.08488 16.8663C8.57634 17.3495 7.74127 17.5232 7.37191 18.1475C7.3648 18.1623 7.36264 18.1791 7.36575 18.1953C7.36887 18.2114 7.37709 18.2262 7.38918 18.2372C7.40127 18.2482 7.41656 18.255 7.43276 18.2564C7.44895 18.2579 7.46518 18.2539 7.47897 18.2452C8.08663 17.9369 8.67482 17.5906 9.24012 17.2083C9.85879 16.6155 10.5209 16.0711 11.2207 15.5797C11.9164 15.1045 12.6592 14.7042 13.4369 14.3854C13.7955 14.2497 14.1595 14.1086 14.5075 13.9946C14.5503 13.9946 14.5985 13.9946 14.6467 13.9946C14.5236 14.0814 14.3951 14.1954 14.2827 14.2932L14.2666 14.2932ZM9.58806 9.30425C9.1007 9.18469 8.63473 8.98871 8.20698 8.72338C7.49981 8.24703 6.9145 7.60693 6.49937 6.85594C6.11089 6.11046 5.66522 5.39711 5.16647 4.72249C4.67423 4.199 4.07744 3.78812 3.41603 3.51734C3.66227 3.51734 3.91386 3.51733 4.14404 3.46305C4.53038 3.41447 4.9107 3.32533 5.27888 3.19705C5.96748 2.84523 6.70061 2.59131 7.45756 2.44246C8.00031 2.38851 8.54821 2.44576 9.0687 2.61083C9.58919 2.7759 10.0716 3.04542 10.4874 3.40334C10.6212 3.65306 10.8567 3.9082 10.9477 4.08192C11.4013 5.01521 11.9071 5.92146 12.4626 6.79623C12.9806 7.51228 13.5869 8.1581 14.2666 8.71795C14.3951 8.83195 14.5503 8.96225 14.7163 9.08711C14.6549 9.07582 14.5942 9.06132 14.5343 9.04367C14.1596 8.92967 13.7848 8.7831 13.4208 8.64196C12.6443 8.3229 11.9017 7.92456 11.2047 7.45309C10.5061 6.96009 9.8441 6.41576 9.22406 5.8245C8.65762 5.44244 8.06956 5.0944 7.46291 4.7822C7.44874 4.77152 7.43132 4.76627 7.4137 4.76735C7.39608 4.76844 7.37941 4.77579 7.36661 4.78811C7.35381 4.80044 7.34572 4.81696 7.34375 4.83475C7.34178 4.85254 7.34607 4.87045 7.35585 4.88534C7.72521 5.50421 8.56028 5.67793 9.06882 6.16651C9.69658 6.80174 10.3693 7.3896 11.0816 7.92538C11.7566 8.40165 12.4734 8.81414 13.2228 9.15767C12.6553 9.15767 12.0933 9.15767 11.5366 9.15767C10.903 9.17209 10.2705 9.2192 9.6416 9.29882L9.58806 9.30425ZM3.9085 10.39C5.6643 10.1348 7.68774 9.84711 9.59341 9.67339C10.0212 9.78227 10.4677 9.79154 10.8996 9.70053C10.9128 9.69652 10.9244 9.68829 10.9327 9.67704C10.941 9.66579 10.9454 9.65214 10.9454 9.63811C10.9454 9.62408 10.941 9.61042 10.9327 9.59917C10.9244 9.58793 10.9128 9.57969 10.8996 9.57568C11.1244 9.57568 11.3492 9.54854 11.5633 9.53768C12.6972 9.46977 13.834 9.46977 14.9679 9.53768C15.1713 9.53768 15.3854 9.58111 15.5995 9.60825C15.6063 9.61124 15.6136 9.61278 15.6209 9.61278C15.6283 9.61278 15.6356 9.61124 15.6423 9.60825C16.1776 9.65711 16.7611 9.72226 17.3285 9.81454C18.2703 9.9796 19.2003 10.2081 20.1121 10.4985L20.3476 10.5637C20.7073 10.6999 21.0781 10.8034 21.4557 10.8731C22.1921 11.0368 22.945 11.1115 23.6986 11.0957C24.5204 11.1112 25.3412 11.0311 26.145 10.8568C26.7384 10.7291 27.3042 10.4937 27.8151 10.162C28.4622 10.0044 29.138 10.0156 29.7797 10.1945C30.4204 10.3596 31.0484 10.5718 31.6586 10.8297C31.9744 10.9546 32.2742 11.1011 32.574 11.2477C32.5899 11.2447 32.6062 11.2447 32.6221 11.2477C32.3584 11.3925 32.1061 11.5577 31.8673 11.7417C31.4299 12.0537 30.974 12.3383 30.5023 12.594C29.983 12.8427 29.4172 12.976 28.8429 12.9849C28.3203 12.9338 27.8061 12.8171 27.3119 12.6374C26.9383 12.4601 26.5471 12.3236 26.145 12.2303C25.3412 12.055 24.5207 11.9713 23.6986 11.9806C22.9452 11.9703 22.1929 12.0449 21.4557 12.2031C21.092 12.2778 20.7342 12.3794 20.3851 12.5071C20.0907 12.556 19.7856 12.594 19.4965 12.6537C18.6079 12.8328 17.7354 13.0554 16.82 13.2346C16.4239 13.316 16.0331 13.3703 15.637 13.4191C15.637 13.392 15.637 13.3757 15.5942 13.3811C15.2516 13.4191 14.925 13.4517 14.6146 13.4951C13.4361 13.5316 12.2571 13.4406 11.0976 13.2237C9.25722 12.8229 7.43836 12.3265 5.64824 11.7363C4.73822 11.4648 3.82821 11.2206 2.90749 11.0034C2.81114 10.9763 2.71478 10.9546 2.61842 10.9328C3.27685 10.9003 3.9781 11.0685 4.61511 11.074C5.584 11.074 6.54754 11.1608 7.51109 11.2368C9.59333 11.424 11.6848 11.4839 13.7741 11.416C13.7887 11.4118 13.8015 11.4029 13.8106 11.3906C13.8197 11.3784 13.8246 11.3635 13.8246 11.3481C13.8246 11.3328 13.8197 11.3179 13.8106 11.3056C13.8015 11.2934 13.7887 11.2845 13.7741 11.2803C11.6972 11.0794 9.60947 10.9383 7.52715 10.808C6.51007 10.7483 5.493 10.6831 4.47057 10.6885C4.00486 10.6885 3.51238 10.6234 3.03061 10.6126C3.3206 10.5086 3.62005 10.434 3.92456 10.39L3.9085 10.39Z" fill="#C5903A"/>
<path d="M1037.6 8.53375C1037.6 8.53375 1037.55 8.53375 1037.52 8.53375C1037.49 8.53375 1037.57 8.49628 1037.6 8.53375Z" fill="#C5903A"/>
<path d="M1082.03 23.9236C1081.7 26.0082 1079.67 26.7845 1077.82 26.6379L1077.82 26.6107C1079.68 26.5782 1081.47 25.7367 1081.75 23.6901C1081.82 22.9903 1081.73 22.2841 1081.5 21.6218C1081.14 20.7676 1080.6 20 1079.93 19.3689C1079.92 19.3604 1079.92 19.3493 1079.92 19.3376C1079.92 19.3259 1079.92 19.3144 1079.93 19.3052C1079.94 19.296 1079.95 19.2897 1079.96 19.2874C1079.97 19.2852 1079.98 19.2871 1079.99 19.293C1080.74 19.7731 1081.34 20.4694 1081.71 21.2937C1082.07 22.1179 1082.18 23.0332 1082.03 23.9236Z" fill="#C5903A"/>
<path d="M1080.05 25.243C1080.11 25.243 1080.16 25.3136 1080.11 25.3625C1079.31 26.2256 1077.68 26.0845 1076.71 25.6719C1076.68 25.6719 1076.71 25.6122 1076.71 25.623C1077.33 25.7862 1077.98 25.8286 1078.62 25.7479C1079.11 25.6293 1079.59 25.4602 1080.05 25.243Z" fill="#C5903A"/>
<path d="M1078.17 25.183C1077.8 25.198 1077.43 25.1197 1077.1 24.955C1076.82 24.841 1076.5 24.7596 1076.41 24.4447C1076.41 24.4121 1076.45 24.3796 1076.47 24.4121C1076.89 24.8898 1077.67 24.8681 1078.2 25.0961C1078.21 25.1124 1078.22 25.1776 1078.17 25.183Z" fill="#C5903A"/>
<path d="M1071.1 20.6339C1070.48 21.2327 1069.89 21.8729 1069.35 22.5502C1069.05 22.99 1068.86 23.3265 1068.78 23.4188C1068.69 23.5111 1068.65 23.5274 1068.6 23.522C1067.98 24.358 1067.43 25.1505 1066.86 25.8563C1057.43 37.669 1034.55 22.3277 1037.21 9.20126C1037.21 9.0004 1037.27 8.51182 1037.46 8.51724C1037.48 8.51993 1037.5 8.51993 1037.52 8.51724C1037.46 8.61273 1037.42 8.71999 1037.4 8.83211C1037.43 11.7201 1037.28 14.923 1039.95 18.9891C1044.68 26.2091 1053.52 30.0689 1059.22 29.5532C1064.06 29.1189 1066.47 25.498 1068.03 23.1745C1068.27 22.8126 1068.53 22.4507 1068.81 22.0888C1069.5 20.7397 1070.58 19.6409 1071.91 18.9456C1077.02 14.7982 1083.79 13.4356 1086.26 18.1585C1086.56 18.7013 1086.84 19.5428 1087.59 19.5808C1088.12 19.6079 1089.06 18.5548 1088.18 16.9859C1086.99 14.8633 1082.29 12.5453 1075.68 14.9882C1072.82 16.0413 1069.65 18.8588 1069.65 18.8588C1069.55 18.9294 1069.29 16.9859 1069.32 17.1053C1068.99 15.9576 1068.39 14.9065 1067.58 14.0403C1066.77 13.1742 1065.76 12.5181 1064.65 12.1273C1061.88 11.2533 1058.79 13.7559 1060.42 15.6613C1060.76 16.0522 1061.22 16.5842 1061.46 16.2585C1061 12.9416 1065.02 12.2413 1067.04 14.9122C1070.73 19.7979 1065.85 28.9234 1056.99 28.7117C1051.03 28.5652 1039.86 22.4471 1038.06 11.769C1037.91 11.2502 1037.81 10.72 1037.75 10.1838C1037.75 10.1533 1037.76 10.123 1037.78 10.0982C1037.8 10.0734 1037.82 10.0557 1037.85 10.0481L1037.85 9.83639C1037.79 9.70611 1037.73 8.7181 1037.61 8.51724C1037.88 8.55524 1037.99 8.6801 1038.04 8.98953C1038.07 8.98953 1038.09 8.98953 1038.09 8.98953C1038.13 8.97632 1038.17 8.97338 1038.21 8.98098C1038.25 8.98858 1038.29 9.00648 1038.32 9.03297C1038.39 9.08214 1038.45 9.14057 1038.51 9.20669L1038.68 9.38583L1038.84 9.58668C1038.96 9.72354 1039.08 9.85401 1039.21 9.97754C1039.66 10.3546 1040.24 10.5379 1040.82 10.4878C1041.43 10.4813 1042.03 10.276 1042.53 9.90155C1042.79 9.65602 1043 9.36004 1043.15 9.03098C1043.3 8.70192 1043.38 8.3464 1043.39 7.98525C1043.48 7.15467 1043.51 6.35665 1043.6 5.61836C1043.68 5.08135 1043.82 4.55728 1044.04 4.06035C1044.11 3.84417 1044.23 3.64549 1044.38 3.47652C1044.53 3.30755 1044.72 3.17186 1044.92 3.07777C1044.96 3.07777 1045.06 3.07776 1045.12 3.20805C1045.47 3.8812 1046.13 4.86378 1046.49 5.69979C1046.48 5.59756 1046.5 5.49559 1046.52 5.39579C1046.55 5.21019 1046.63 5.0345 1046.74 4.88008C1046.83 4.73772 1046.95 4.6113 1047.08 4.5055C1047.38 4.27737 1047.74 4.13508 1048.12 4.09312C1048.49 4.05116 1048.87 4.11103 1049.22 4.26664C1050.28 4.66687 1051.2 5.35653 1051.9 6.25893C1052.23 6.6721 1052.47 7.15895 1052.59 7.68123C1052.68 8.14809 1052.57 8.55525 1052.15 8.6964C1052.15 8.6964 1052.15 8.75068 1052.15 8.74525C1052.13 8.75079 1052.11 8.75079 1052.08 8.74525C1052.06 8.74327 1052.04 8.73698 1052.02 8.72678C1052.01 8.71659 1051.99 8.70268 1051.98 8.68593C1051.96 8.66917 1051.95 8.64992 1051.95 8.62932C1051.94 8.60872 1051.94 8.58721 1051.95 8.5661L1051.97 8.50096L1051.97 8.39781C1051.95 8.1629 1051.88 7.93545 1051.76 7.7305C1051.65 7.52555 1051.49 7.34777 1051.3 7.20894C1051.12 7.07165 1050.92 6.96861 1050.71 6.90494C1050.54 6.85146 1050.35 6.82761 1050.17 6.83437C1049.75 6.83437 1049.59 7.20895 1049.55 7.64324C1049.5 8.07753 1049.58 8.54982 1049.55 8.99497C1049.53 9.29129 1049.46 9.58136 1049.33 9.84726C1049.27 9.97736 1049.21 10.1027 1049.13 10.2218C1049.05 10.3634 1048.95 10.4916 1048.84 10.6018C1048.87 10.613 1048.9 10.6275 1048.94 10.6453C1049.24 10.779 1049.49 10.9926 1049.68 11.2632C1049.87 11.5337 1049.98 11.8512 1050.01 12.1816C1050.04 12.4961 1050 12.8135 1049.89 13.1099C1049.65 13.6666 1049.2 14.104 1048.64 14.3259C1048.36 14.4482 1048.07 14.541 1047.77 14.6027C1047.62 14.6353 1047.46 14.6625 1047.31 14.6842C1047.17 14.7059 1047.02 14.7222 1046.88 14.733C1044.95 14.8666 1043.03 14.3679 1041.41 13.3107C1040.63 12.8193 1039.92 12.2461 1039.26 11.6007L1039.21 11.5356L1039.29 11.7093L1039.48 12.1056L1039.59 12.3064L1039.7 12.5019C1040.24 13.3701 1040.97 14.0987 1041.84 14.6299C1042.74 15.2397 1043.74 15.6861 1044.79 15.949C1045.3 16.0691 1045.82 16.1039 1046.35 16.0522C1046.6 16.0246 1046.86 15.9811 1047.11 15.9219L1047.3 15.873C1047.36 15.8564 1047.42 15.8365 1047.49 15.8133C1047.6 15.7699 1047.72 15.721 1047.84 15.6667C1048.07 15.5636 1048.29 15.4605 1048.51 15.3519L1049.16 15.0099L1049.47 14.847L1049.79 14.6733L1050.1 14.5104L1050.4 14.3584C1051.09 14.0314 1051.81 13.7732 1052.54 13.5876C1053.34 13.3634 1054.17 13.308 1054.99 13.4247C1055.01 13.4269 1055.04 13.4349 1055.06 13.4482C1055.08 13.4615 1055.1 13.4797 1055.12 13.5015C1055.13 13.5233 1055.14 13.5482 1055.15 13.5743C1055.15 13.6005 1055.15 13.6272 1055.14 13.6527C1054.89 14.4019 1054.8 15.5907 1054.41 16.4648C1054.53 16.3837 1054.66 16.3129 1054.79 16.253C1055.08 16.1226 1055.38 16.0313 1055.69 15.9816C1056.01 15.93 1056.32 15.9028 1056.64 15.9002C1057.9 15.8313 1059.14 16.268 1060.09 17.1162C1060.5 17.5459 1060.8 18.0753 1060.96 18.6546C1061.11 19.2339 1061.12 19.8441 1060.98 20.4276C1060.87 20.9882 1060.61 21.5077 1060.23 21.9314C1060.05 22.1411 1059.82 22.2954 1059.55 22.3769C1059.29 22.4584 1059.01 22.4639 1058.74 22.3928C1058.73 22.4012 1058.72 22.4058 1058.71 22.4058C1058.7 22.4058 1058.68 22.4012 1058.67 22.3928C1058.65 22.3781 1058.63 22.355 1058.62 22.3277C1058.6 22.3189 1058.58 22.3036 1058.57 22.2838C1058.55 22.2639 1058.55 22.2404 1058.55 22.2164C1058.55 22.1923 1058.55 22.1688 1058.57 22.149C1058.58 22.1291 1058.6 22.1138 1058.62 22.1051L1058.72 22.0725L1058.8 21.9802C1058.99 21.8239 1059.14 21.6128 1059.21 21.3734C1059.29 21.1339 1059.3 20.8767 1059.23 20.6339C1059.14 20.3983 1059.01 20.184 1058.83 20.0046C1058.65 19.8252 1058.45 19.6845 1058.21 19.5916C1057.94 19.4863 1057.64 19.4525 1057.35 19.4933C1057.05 19.534 1056.78 19.6481 1056.54 19.8251C1056.07 20.1638 1055.63 20.5262 1055.2 20.9108C1055.03 21.0345 1054.85 21.1383 1054.66 21.2202C1054.47 21.3071 1054.27 21.3722 1054.08 21.4374C1053.87 21.5069 1053.67 21.5631 1053.45 21.6057C1053.2 21.6614 1052.94 21.6923 1052.68 21.6979L1052.78 21.8011C1053.01 22.0367 1053.14 22.3491 1053.17 22.6805C1053.16 22.8702 1053.12 23.0573 1053.04 23.2295C1052.97 23.4016 1052.85 23.555 1052.71 23.6794C1052.64 23.7534 1052.56 23.8206 1052.48 23.8803C1052.4 23.9426 1052.31 23.9988 1052.22 24.0485C1052.05 24.1497 1051.87 24.2333 1051.68 24.2983C1051.58 24.3308 1051.47 24.3634 1051.36 24.3905C1051.24 24.4177 1051.13 24.434 1051.01 24.4448C1050.77 24.4758 1050.53 24.4904 1050.29 24.4883C1050.04 24.478 1049.8 24.4544 1049.55 24.4177C1049.3 24.3809 1049.05 24.3283 1048.8 24.2603C1048.55 24.1897 1048.3 24.1137 1048.05 24.0268C1047.81 23.94 1047.57 23.8314 1047.33 23.7283C1046.87 23.5186 1046.42 23.2811 1045.99 23.0171L1045.74 22.8705L1045.5 22.7077C1045.34 22.5991 1045.18 22.4851 1045.03 22.3765L1044.8 22.2028C1044.77 22.1757 1044.72 22.1485 1044.69 22.1214L1044.61 22.0399L1044.27 21.7251C1043.82 21.2962 1043.38 20.8294 1042.96 20.3462C1042.12 19.3772 1041.37 18.3365 1040.7 17.2356C1040.1 16.2313 1039.57 15.2107 1039.1 14.1902L1039.18 14.4942C1041.78 23.18 1052.63 28.2394 1058.02 28.0006C1064.51 27.7074 1068.91 20.9922 1066.73 16.2367C1065.84 14.2987 1062.32 12.4639 1061.96 16.3345C1061.85 17.6048 1060.63 17.0565 1059.73 15.7373C1059.05 14.7385 1059.33 12.2956 1062.46 11.5193C1065.14 10.8516 1068.18 13.0339 1069.52 15.8025C1070.06 16.9642 1069.96 17.4311 1069.89 18.4354C1072.28 16.1228 1073.11 15.075 1077.01 13.8807C1083.81 11.7961 1089.9 15.341 1089.35 18.7013C1089.04 20.6339 1086.55 21.4157 1085.5 18.1585C1082.96 15.2867 1079.25 15.8242 1075.8 17.4799C1075.62 17.5722 1075.45 17.6591 1075.26 17.7513C1086.57 15.2813 1084.94 31.1818 1076.95 27.6369C1075.2 26.8551 1074.17 25.156 1075.88 23.1637C1076.45 22.5177 1076.55 23.6631 1078.23 24.1408C1079.26 24.434 1080.15 23.6305 1080.49 22.7131C1081.18 20.8185 1078.82 17.5776 1072.79 19.7111C1072.18 19.9216 1071.61 20.2335 1071.1 20.6339ZM1041 12.681C1042.51 13.6858 1044.26 14.2406 1046.07 14.2824C1046.68 14.2924 1047.29 14.2119 1047.87 14.0436C1048.16 13.9558 1048.43 13.8298 1048.68 13.669C1048.93 13.5099 1049.14 13.3033 1049.31 13.061C1049.39 12.9361 1049.46 12.7963 1049.49 12.6484C1049.54 12.4718 1049.56 12.2883 1049.55 12.1056C1049.54 11.9143 1049.49 11.7271 1049.4 11.5561C1049.32 11.385 1049.2 11.2338 1049.05 11.1121C1048.82 10.9488 1048.56 10.8344 1048.28 10.7756L1048.19 10.7267C1048.1 10.6902 1048.01 10.6348 1047.94 10.5638C1047.86 10.4878 1047.85 10.3358 1047.91 10.3033C1047.97 10.2707 1048.16 10.1784 1048.27 10.1133C1048.4 10.0545 1048.51 9.96713 1048.59 9.85811C1048.7 9.72089 1048.79 9.57144 1048.86 9.41296C1048.93 9.23746 1048.98 9.05577 1049.02 8.8701C1049.07 8.45738 1049.08 8.04169 1049.06 7.62696C1049.05 7.44337 1049.08 7.25986 1049.15 7.08923C1049.22 6.9186 1049.32 6.76493 1049.45 6.63894C1049.68 6.48364 1049.97 6.42713 1050.24 6.48151C1050.61 6.54421 1050.95 6.68489 1051.25 6.89409C1051.57 7.11072 1051.83 7.40352 1052.01 7.74639C1052.05 7.83062 1052.08 7.92013 1052.1 8.01239C1052.15 7.83806 1052.17 7.65123 1052.14 7.46952C1052.01 6.97516 1051.76 6.52035 1051.42 6.14494C1051.09 5.72165 1050.69 5.3551 1050.24 5.05921C1049.86 4.79966 1049.44 4.60528 1049 4.48378C1048.67 4.38844 1048.33 4.38892 1048.01 4.48516C1047.69 4.5814 1047.4 4.76935 1047.18 5.02664C1047.06 5.1526 1046.97 5.29987 1046.9 5.46093C1046.83 5.65213 1046.79 5.85731 1046.8 6.06351C1046.8 6.21551 1046.83 6.40552 1046.83 6.5738C1046.83 6.74209 1046.8 6.88867 1046.7 6.94838C1046.7 6.94838 1046.44 6.94838 1046.43 6.82895C1046.38 6.20579 1046.21 5.59917 1045.92 5.04293C1045.66 4.50007 1045.32 3.95721 1045.03 3.38721C1044.67 3.657 1044.4 4.03703 1044.26 4.47293C1044.07 4.99956 1043.94 5.54566 1043.86 6.10152C1043.76 6.83981 1043.72 7.69752 1043.59 8.53353C1043.52 9.16343 1043.22 9.744 1042.75 10.1621C1042.33 10.5025 1041.83 10.7153 1041.29 10.7756C1040.7 10.8912 1040.09 10.8172 1039.54 10.5638C1039.46 10.5147 1039.37 10.4603 1039.3 10.401C1039.25 10.3751 1039.22 10.3461 1039.18 10.3141L1039.07 10.211L1038.86 9.9884C1038.79 9.9124 1038.73 9.82555 1038.67 9.74955L1038.53 9.54868C1038.48 9.47268 1038.42 9.38582 1038.36 9.31525C1038.31 9.25229 1038.25 9.19739 1038.19 9.1524C1038.15 9.12649 1038.1 9.11496 1038.06 9.11983L1038.1 9.53239C1038.32 10.0865 1038.65 10.593 1039.06 11.0253C1039.63 11.6576 1040.28 12.2139 1041 12.681ZM1038.92 13.3216C1039.41 14.4084 1039.97 15.4619 1040.6 16.4756C1041.23 17.519 1041.94 18.5134 1042.72 19.4505L1043.01 19.7979L1043.31 20.1399L1043.62 20.4765L1043.93 20.8022L1044.25 21.1225L1044.57 21.4319L1044.73 21.5785L1044.82 21.6545L1044.94 21.7522C1045.08 21.8608 1045.22 21.9694 1045.37 22.0725C1045.52 22.1757 1045.57 22.2191 1045.67 22.2897C1045.76 22.3602 1045.87 22.4362 1045.98 22.496C1046.19 22.6317 1046.41 22.762 1046.64 22.8922C1046.75 22.952 1046.86 23.0225 1046.98 23.0768L1047.33 23.2397C1047.56 23.3482 1047.8 23.4514 1048.05 23.5437C1048.29 23.636 1048.54 23.7011 1048.78 23.7717C1048.9 23.8043 1049.03 23.8314 1049.15 23.8585C1049.27 23.8857 1049.4 23.902 1049.52 23.9182C1049.76 23.9532 1050.01 23.9749 1050.25 23.9834C1050.49 23.9853 1050.73 23.9708 1050.97 23.94C1051.42 23.8849 1051.84 23.696 1052.19 23.3971C1052.35 23.2784 1052.47 23.1061 1052.53 22.9087C1052.58 22.7113 1052.57 22.5005 1052.49 22.3114C1052.34 21.9422 1052.03 21.7957 1051.76 21.5297C1051.73 21.4991 1051.71 21.4644 1051.68 21.4265C1051.6 21.3486 1051.54 21.2492 1051.51 21.1388C1051.47 21.0194 1051.6 20.9054 1051.72 20.9217C1052.16 21.0229 1052.63 21.0649 1053.09 21.0465C1053.62 20.975 1054.14 20.8136 1054.62 20.5688C1055.07 20.2825 1055.51 19.9651 1055.93 19.6188C1056.38 19.2721 1056.93 19.0818 1057.5 19.0759C1057.92 19.0824 1058.34 19.2159 1058.69 19.46C1059.05 19.7041 1059.32 20.0481 1059.49 20.4494C1059.64 20.8166 1059.64 21.2276 1059.49 21.5948C1059.45 21.6898 1059.39 21.7764 1059.32 21.8499C1059.54 21.7686 1059.73 21.6471 1059.91 21.4917C1060.25 21.0821 1060.47 20.5708 1060.51 20.0314C1060.6 19.3442 1060.47 18.6455 1060.12 18.0457C1059.78 17.4459 1059.25 16.9793 1058.62 16.7199C1058.35 16.608 1058.07 16.5243 1057.79 16.4702C1057.65 16.4702 1057.5 16.4268 1057.36 16.4105C1057.21 16.3942 1057.07 16.3833 1056.93 16.3779C1056.65 16.3779 1056.37 16.3779 1056.1 16.3779C1055.8 16.401 1055.5 16.4555 1055.21 16.5407C1054.92 16.6276 1054.65 16.7654 1054.41 16.9479C1054.1 17.1976 1053.77 17.6048 1053.34 17.5668C1053.29 17.5668 1053 17.3822 1053.09 17.3008C1053.34 17.071 1053.57 16.8123 1053.76 16.5299C1053.95 16.2403 1054.11 15.9264 1054.23 15.5962C1054.43 14.9882 1054.53 14.3476 1054.72 13.7396C1053.93 13.7048 1053.14 13.8058 1052.38 14.0382C1052.19 14.087 1052 14.1467 1051.84 14.2119C1051.75 14.2499 1051.66 14.2824 1051.57 14.315C1051.48 14.3476 1051.39 14.3802 1051.3 14.4182C1050.92 14.5702 1050.57 14.7167 1050.23 14.8904C1050.01 14.9936 1049.8 15.0967 1049.58 15.2107L1049.25 15.3845L1048.92 15.5527C1048.7 15.6613 1048.47 15.7808 1048.24 15.8893C1048 15.9979 1047.77 16.0956 1047.53 16.1933C1047.42 16.2313 1047.32 16.2693 1047.21 16.3019C1047.1 16.3311 1046.99 16.3547 1046.88 16.3725C1046.43 16.4483 1045.97 16.4666 1045.52 16.4268C1045.29 16.4071 1045.06 16.3745 1044.83 16.329C1042.93 15.8674 1041.22 14.8386 1039.9 13.3759C1039.8 13.2488 1039.7 13.1146 1039.61 12.9741C1039.53 12.8384 1039.45 12.6973 1039.37 12.5561C1039.29 12.415 1039.22 12.2684 1039.16 12.1219C1039.09 11.9753 1039.02 11.8341 1038.96 11.6821C1038.9 11.5301 1038.76 11.1718 1038.63 10.8787C1038.6 10.8113 1038.57 10.746 1038.53 10.6833L1038.38 10.4607C1038.34 10.4051 1038.29 10.3541 1038.24 10.3087C1038.3 10.7918 1038.39 11.3944 1038.55 12.187C1038.61 12.5833 1038.76 12.9524 1038.92 13.3216ZM1076.06 23.4948C1075.65 24.128 1075.49 24.8883 1075.6 25.6337C1075.97 27.056 1079.24 28.2123 1081.33 26.448C1083.86 24.3254 1083.41 15.759 1073.91 18.5602C1073.81 18.5873 1073.72 18.6253 1073.62 18.6579C1073.06 19.0254 1072.53 19.426 1072.01 19.8576C1072.45 19.6176 1072.91 19.4247 1073.38 19.2822C1083.39 16.2802 1082.03 28.158 1076.06 23.4948Z" fill="#C5903A"/>
<path d="M1039.48 13.5062L1039.61 13.7179C1039.69 13.8537 1039.79 13.9948 1039.88 14.1305C1039.98 14.2662 1040.09 14.3911 1040.21 14.5159C1040.31 14.6468 1040.43 14.7701 1040.55 14.8851C1040.67 15.0045 1040.79 15.1239 1040.92 15.2379C1041.05 15.3519 1041.18 15.4605 1041.31 15.5691C1041.57 15.7917 1041.84 15.9925 1042.1 16.1988C1043.28 17.1063 1044.56 17.8748 1045.92 18.4897L1046.16 18.6037L1046.43 18.7068C1046.6 18.7774 1046.78 18.848 1046.96 18.9131C1047.05 18.947 1047.14 18.976 1047.23 19L1047.5 19.0814C1047.68 19.1303 1047.87 19.1846 1048.04 19.228C1048.21 19.2714 1048.41 19.304 1048.57 19.3366C1048.74 19.3691 1048.94 19.4017 1049.11 19.418C1049.28 19.4343 1049.48 19.456 1049.64 19.4723C1049.73 19.4723 1049.83 19.4723 1049.92 19.4723L1050.19 19.4723C1050.37 19.4723 1050.55 19.4723 1050.73 19.4723C1050.91 19.4723 1051.08 19.4723 1051.27 19.4343C1051.45 19.3963 1051.61 19.4017 1051.8 19.38C1051.99 19.3583 1052.14 19.3311 1052.34 19.2986C1052.53 19.266 1052.69 19.2334 1052.87 19.1845C1053.05 19.1357 1053.21 19.0868 1053.41 19.038C1053.75 18.9403 1054.09 18.8208 1054.43 18.734C1054.48 18.734 1054.5 18.7937 1054.43 18.8208C1054.14 18.9995 1053.83 19.1434 1053.51 19.2497C1053.34 19.304 1053.18 19.3583 1053.01 19.4017C1052.84 19.4451 1052.84 19.4506 1052.76 19.4723L1052.51 19.5374C1052.15 19.628 1051.79 19.6933 1051.42 19.7328L1050.88 19.7817C1050.69 19.7817 1050.5 19.7817 1050.31 19.7817C1049.53 19.7872 1048.76 19.7034 1048.01 19.532C1047.82 19.4886 1047.64 19.4288 1047.44 19.38L1047.16 19.2931C1047.07 19.2673 1046.97 19.2365 1046.88 19.2008L1046.35 18.9891L1046.07 18.8751L1045.82 18.7611C1044.47 18.1597 1043.2 17.3882 1042.04 16.4648C1041.46 15.9882 1040.92 15.4594 1040.43 14.8851L1040.07 14.4399L1039.91 14.2228C1039.85 14.1468 1039.79 14.0654 1039.75 13.9894C1039.64 13.8391 1039.54 13.6832 1039.46 13.5225C1039.37 13.3595 1039.29 13.1908 1039.23 13.0176L1039.44 13.2511L1039.48 13.5062Z" fill="#C5903A"/>
<path d="M1039.11 10.7105C1039.17 10.7105 1039.23 10.7539 1039.29 10.7756C1039.36 10.8523 1039.44 10.9248 1039.52 10.9928C1039.61 11.0576 1039.7 11.1157 1039.79 11.1665C1039.88 11.2153 1039.98 11.2642 1040.07 11.3076C1040.17 11.3459 1040.27 11.3785 1040.37 11.4053C1040.57 11.4636 1040.77 11.5054 1040.98 11.5302C1041.18 11.5628 1041.38 11.5736 1041.59 11.5953C1042.5 11.6545 1043.41 11.5252 1044.26 11.2153C1045.09 10.9047 1045.84 10.4178 1046.46 9.7876C1046.76 9.47861 1047.02 9.13827 1047.25 8.77245C1047.37 8.57596 1047.47 8.36885 1047.56 8.1536C1047.65 7.94188 1047.73 7.73015 1047.83 7.52929C1047.83 7.50215 1047.9 7.5293 1047.9 7.58902C1047.84 8.04829 1047.69 8.49098 1047.46 8.89188C1047.25 9.30903 1046.98 9.69298 1046.66 10.0319C1046.03 10.7074 1045.25 11.2194 1044.38 11.5248C1043.51 11.8575 1042.57 11.9819 1041.65 11.8885C1041.17 11.8457 1040.7 11.7247 1040.27 11.5302C1040.04 11.4407 1039.83 11.3298 1039.63 11.199C1039.53 11.135 1039.43 11.0624 1039.34 10.9819C1039.26 10.8983 1039.18 10.8075 1039.11 10.7105Z" fill="#C5903A"/>
<path d="M1105.23 11.0848C1104.6 11.226 1103.97 11.3345 1103.35 11.4648C1102.42 11.6603 1101.5 11.8937 1100.59 12.138C1099.18 12.518 1097.79 12.9523 1096.38 13.3269C1096.86 13.4173 1097.32 13.5744 1097.75 13.7937C1098.47 14.1747 1099.09 14.735 1099.54 15.4223C1100.03 16.1389 1100.34 16.964 1100.82 17.686C1101.1 18.1502 1101.48 18.5482 1101.92 18.8532C1102.33 19.0921 1102.77 19.2495 1103.19 19.4666C1103.3 19.5209 1103.24 19.6838 1103.14 19.7109C1102.89 19.8094 1102.63 19.891 1102.37 19.9552C1102.16 19.9824 1101.94 20.0095 1101.73 20.0475C1101.25 20.1411 1100.78 20.2961 1100.33 20.5089C1099.64 20.8768 1098.86 21.0474 1098.07 21.0029C1097 20.8889 1095.44 20.5361 1095.05 19.3743L1094.88 19.0921C1094.45 18.2439 1093.97 17.4227 1093.45 16.6329C1092.95 15.9772 1092.39 15.3782 1091.77 14.8469C1091.51 14.5941 1091.23 14.3702 1090.92 14.1791C1090.67 14.0434 1090.42 13.9837 1090.18 13.8751C1090.01 13.8751 1089.83 13.8317 1089.64 13.8046C1088.74 13.6634 1087.87 13.392 1086.96 13.2129C1086.22 13.071 1085.48 12.8898 1084.75 12.67C1084.62 12.6428 1084.5 12.6103 1084.37 12.594C1083.7 12.51 1083.04 12.4774 1082.37 12.4963C1081.52 12.5119 1080.68 12.649 1079.87 12.9034C1079.26 13.1097 1078.68 13.6417 1078.01 13.5983C1077.86 13.6543 1077.71 13.6961 1077.55 13.7231C1076.93 13.8107 1076.31 13.7417 1075.72 13.5223C1075.15 13.28 1074.61 12.9683 1074.12 12.594C1073.6 12.3029 1073.12 11.9373 1072.7 11.5083C1072.68 11.4752 1072.67 11.4377 1072.66 11.3987C1072.66 11.3597 1072.66 11.3205 1072.68 11.2843C1072.69 11.2481 1072.72 11.216 1072.75 11.1908C1072.78 11.1655 1072.81 11.1478 1072.85 11.1391C1072.99 10.9599 1073.18 10.8184 1073.38 10.7265C1073.68 10.5583 1073.97 10.3954 1074.27 10.2434C1074.83 9.93856 1075.43 9.70171 1076.04 9.53768C1076.66 9.38788 1077.29 9.35109 1077.91 9.4291C1078.06 9.45135 1078.2 9.49146 1078.34 9.54853C1078.84 9.74152 1079.34 9.96077 1079.83 10.2054C1080.64 10.4598 1081.48 10.5969 1082.32 10.6126C1082.99 10.6342 1083.66 10.6015 1084.33 10.5148C1084.46 10.4955 1084.6 10.4684 1084.73 10.4334C1085.19 10.3103 1085.64 10.1692 1086.1 10.01C1086.94 9.73195 1087.81 9.52853 1088.69 9.40196C1089.11 9.33682 1089.53 9.2934 1089.95 9.2554C1089.96 9.23554 1089.98 9.21868 1089.99 9.20654C1090.27 9.05997 1090.57 9.0111 1090.85 8.85367C1091.16 8.66276 1091.44 8.44085 1091.7 8.19137C1092.32 7.6581 1092.89 7.05737 1093.38 6.39993C1093.91 5.61159 1094.39 4.79024 1094.81 3.94077C1094.86 3.84563 1094.92 3.75322 1094.98 3.6639C1095.37 2.49132 1096.93 2.13846 1098 2.03532C1098.79 1.98528 1099.57 2.15428 1100.26 2.52389C1100.71 2.73855 1101.18 2.89541 1101.66 2.99076C1101.87 3.02876 1102.09 3.05046 1102.3 3.08304C1102.56 3.1429 1102.82 3.22275 1103.07 3.3219C1103.17 3.34904 1103.23 3.51191 1103.12 3.57163C1102.7 3.78334 1102.26 3.9462 1101.85 4.18506C1101.41 4.48883 1101.03 4.88708 1100.75 5.35221C1100.27 6.06879 1099.96 6.89395 1099.47 7.61052C1099.02 8.29893 1098.4 8.85951 1097.68 9.23911C1097.53 9.31511 1097.36 9.3911 1097.18 9.46167L1097.29 9.46167C1098.22 9.64081 1099.15 9.62997 1100.1 9.72768C1101.55 9.87969 1103.01 10.2271 1104.47 10.4117C1104.8 10.4877 1105.13 10.5474 1105.46 10.6017L1106.11 10.7808C1106.12 10.811 1106.12 10.8429 1106.11 10.8731C1105.83 10.9274 1105.57 10.9926 1105.28 11.0686C1105.26 11.0745 1105.25 11.0799 1105.23 11.0848ZM1091.85 14.2932C1092.53 14.855 1093.13 15.5026 1093.65 16.2203C1094.21 17.0951 1094.71 18.0013 1095.17 18.9346C1095.26 19.1029 1095.49 19.3635 1095.63 19.6078C1096.04 19.9653 1096.52 20.235 1097.04 20.4009C1097.57 20.5669 1098.11 20.6257 1098.66 20.5741C1099.41 20.4258 1100.15 20.17 1100.83 19.8141C1101.2 19.6875 1101.58 19.6002 1101.97 19.5535C1102.2 19.5209 1102.45 19.5155 1102.7 19.4992C1102.04 19.2264 1101.44 18.8158 1100.95 18.2941C1100.45 17.6178 1100.01 16.9046 1099.61 16.1606C1099.2 15.4076 1098.61 14.7656 1097.91 14.2877C1097.48 14.0267 1097.01 13.8309 1096.53 13.7069C1096.2 13.6309 1095.85 13.6146 1095.52 13.5386C1095.38 13.5766 1095.24 13.6146 1095.1 13.6472C1094.43 13.8001 1093.74 13.8999 1093.05 13.9457C1093.74 14.2717 1094.41 14.6567 1095.03 15.0966C1095.74 15.6349 1096.41 16.2265 1097.03 16.8663C1097.54 17.3495 1098.37 17.5232 1098.74 18.1475C1098.75 18.1623 1098.75 18.1791 1098.75 18.1953C1098.74 18.2114 1098.74 18.2262 1098.72 18.2372C1098.71 18.2482 1098.7 18.255 1098.68 18.2564C1098.66 18.2579 1098.65 18.2539 1098.63 18.2452C1098.03 17.9369 1097.44 17.5906 1096.87 17.2083C1096.25 16.6155 1095.59 16.0711 1094.89 15.5797C1094.2 15.1045 1093.45 14.7042 1092.68 14.3854C1092.32 14.2497 1091.95 14.1086 1091.61 13.9946C1091.56 13.9946 1091.51 13.9946 1091.47 13.9946C1091.59 14.0814 1091.72 14.1954 1091.83 14.2932L1091.85 14.2932ZM1096.53 9.30425C1097.01 9.18469 1097.48 8.98871 1097.91 8.72338C1098.61 8.24703 1099.2 7.60693 1099.61 6.85594C1100 6.11046 1100.45 5.39711 1100.95 4.72249C1101.44 4.199 1102.04 3.78812 1102.7 3.51734C1102.45 3.51734 1102.2 3.51733 1101.97 3.46305C1101.58 3.41447 1101.2 3.32533 1100.83 3.19705C1100.15 2.84523 1099.41 2.59131 1098.66 2.44246C1098.11 2.38851 1097.57 2.44576 1097.04 2.61083C1096.52 2.7759 1096.04 3.04542 1095.63 3.40334C1095.49 3.65306 1095.26 3.9082 1095.17 4.08192C1094.71 5.01521 1094.21 5.92146 1093.65 6.79623C1093.13 7.51228 1092.53 8.1581 1091.85 8.71795C1091.72 8.83195 1091.56 8.96225 1091.4 9.08711C1091.46 9.07582 1091.52 9.06132 1091.58 9.04367C1091.95 8.92967 1092.33 8.7831 1092.69 8.64196C1093.47 8.3229 1094.21 7.92456 1094.91 7.45309C1095.61 6.96009 1096.27 6.41576 1096.89 5.8245C1097.46 5.44244 1098.04 5.0944 1098.65 4.7822C1098.66 4.77152 1098.68 4.76627 1098.7 4.76735C1098.72 4.76844 1098.73 4.77579 1098.75 4.78811C1098.76 4.80044 1098.77 4.81696 1098.77 4.83475C1098.77 4.85254 1098.77 4.87045 1098.76 4.88534C1098.39 5.50421 1097.55 5.67793 1097.04 6.16651C1096.42 6.80174 1095.74 7.3896 1095.03 7.92538C1094.36 8.40165 1093.64 8.81414 1092.89 9.15767C1093.46 9.15767 1094.02 9.15767 1094.58 9.15767C1095.21 9.17209 1095.84 9.2192 1096.47 9.29882L1096.53 9.30425ZM1102.2 10.39C1100.45 10.1348 1098.43 9.84711 1096.52 9.67339C1096.09 9.78227 1095.65 9.79154 1095.21 9.70053C1095.2 9.69652 1095.19 9.68829 1095.18 9.67704C1095.17 9.66579 1095.17 9.65214 1095.17 9.63811C1095.17 9.62408 1095.17 9.61042 1095.18 9.59917C1095.19 9.58793 1095.2 9.57969 1095.21 9.57568C1094.99 9.57568 1094.76 9.54854 1094.55 9.53768C1093.42 9.46977 1092.28 9.46977 1091.15 9.53768C1090.94 9.53768 1090.73 9.58111 1090.51 9.60825C1090.51 9.61124 1090.5 9.61278 1090.49 9.61278C1090.49 9.61278 1090.48 9.61124 1090.47 9.60825C1089.94 9.65711 1089.35 9.72226 1088.78 9.81454C1087.84 9.9796 1086.91 10.2081 1086 10.4985L1085.77 10.5637C1085.41 10.6999 1085.04 10.8034 1084.66 10.8731C1083.92 11.0368 1083.17 11.1115 1082.41 11.0957C1081.59 11.1112 1080.77 11.0311 1079.97 10.8568C1079.37 10.7291 1078.81 10.4937 1078.3 10.162C1077.65 10.0044 1076.98 10.0156 1076.33 10.1945C1075.69 10.3596 1075.07 10.5718 1074.45 10.8297C1074.14 10.9546 1073.84 11.1011 1073.54 11.2477C1073.52 11.2447 1073.51 11.2447 1073.49 11.2477C1073.75 11.3925 1074.01 11.5577 1074.25 11.7417C1074.68 12.0537 1075.14 12.3383 1075.61 12.594C1076.13 12.8427 1076.7 12.976 1077.27 12.9849C1077.79 12.9338 1078.31 12.8171 1078.8 12.6374C1079.18 12.4601 1079.57 12.3236 1079.97 12.2303C1080.77 12.055 1081.59 11.9713 1082.41 11.9806C1083.17 11.9703 1083.92 12.0449 1084.66 12.2031C1085.02 12.2778 1085.38 12.3794 1085.73 12.5071C1086.02 12.556 1086.33 12.594 1086.62 12.6537C1087.51 12.8328 1088.38 13.0554 1089.29 13.2346C1089.69 13.316 1090.08 13.3703 1090.48 13.4191C1090.48 13.392 1090.48 13.3757 1090.52 13.3811C1090.86 13.4191 1091.19 13.4517 1091.5 13.4951C1092.68 13.5316 1093.86 13.4406 1095.02 13.2237C1096.86 12.8229 1098.68 12.3265 1100.47 11.7363C1101.38 11.4648 1102.29 11.2206 1103.21 11.0034C1103.3 10.9763 1103.4 10.9546 1103.49 10.9328C1102.84 10.9003 1102.14 11.0685 1101.5 11.074C1100.53 11.074 1099.57 11.1608 1098.6 11.2368C1096.52 11.424 1094.43 11.4839 1092.34 11.416C1092.32 11.4118 1092.31 11.4029 1092.3 11.3906C1092.29 11.3784 1092.29 11.3635 1092.29 11.3481C1092.29 11.3328 1092.29 11.3179 1092.3 11.3056C1092.31 11.2934 1092.32 11.2845 1092.34 11.2803C1094.42 11.0794 1096.5 10.9383 1098.59 10.808C1099.6 10.7483 1100.62 10.6831 1101.64 10.6885C1102.11 10.6885 1102.6 10.6234 1103.08 10.6126C1102.79 10.5086 1102.49 10.434 1102.19 10.39L1102.2 10.39Z" fill="#C5903A"/>
<path d="M535.076 9.54417C535.459 9.67368 535.829 9.82106 536.203 9.99076C536.957 10.3194 537.652 10.772 538.26 11.3305C538.855 11.8653 539.383 12.4728 539.832 13.1392C540.272 13.7823 540.528 14.5103 540.937 15.1623C540.937 15.1623 540.986 15.1623 540.977 15.1355C540.687 14.3243 540.312 13.5472 539.858 12.8177C539.406 12.1854 538.878 11.6124 538.286 11.1117C537.683 10.5763 537.009 10.1298 536.282 9.78533C535.497 9.42949 534.66 9.20334 533.803 9.11545C533.803 9.11545 533.777 9.1467 533.803 9.15117C534.208 9.31194 534.653 9.40126 535.076 9.54417Z" fill="#C5903A"/>
</svg>
