<svg width="94" height="41" viewBox="0 0 94 41" fill="none" xmlns="http://www.w3.org/2000/svg">
<path d="M4.72685 34.4757C4.45972 33.6698 3.9845 32.7203 2.93846 32.7203C2.22142 32.7203 1.6984 33.2584 1.6984 33.9882C1.6984 34.6927 2.15956 35.1012 3.28433 35.6648C4.62562 36.3185 5.54512 37.0342 5.54512 38.3021C5.54512 39.7617 4.30506 40.9028 2.44075 40.9028C1.9796 40.9028 1.5325 40.838 1.15008 40.7225C0.792964 40.6211 0.548326 40.5168 0.371175 40.4407C0.255885 40.1195 0.0899817 39.046 0 38.2627L0.447097 38.1218C0.702982 38.9417 1.45658 40.3759 2.68258 40.3759C3.46148 40.3759 3.95919 39.8378 3.95919 39.0319C3.95919 38.2768 3.39681 37.8034 2.43794 37.2906C1.12196 36.6256 0.213707 35.9324 0.213707 34.7039C0.213707 33.2951 1.32442 32.1934 3.14092 32.1934C3.95919 32.1934 4.68748 32.4498 4.91806 32.5399C4.96868 33.0133 5.05866 33.5768 5.15989 34.3714L4.72685 34.4757Z" fill="#133C58"/>
<path d="M13.2497 34.581C13.095 33.916 12.9178 33.4934 12.6873 33.2623C12.4707 33.0313 12.1389 32.9552 11.3966 32.9552H10.8089V39.0132C10.8089 40.1008 10.9354 40.1797 12.0602 40.2671V40.7151H7.89574V40.2671C8.9699 40.1769 9.09643 40.1008 9.09643 39.0132V32.9552H8.66058C7.61174 32.9552 7.38116 33.0961 7.18995 33.3018C6.98468 33.5187 6.81877 33.9555 6.65287 34.5951H6.19171C6.24233 33.6596 6.31825 32.7241 6.34637 32.0732H6.65287C6.85814 32.3691 7.02404 32.3945 7.38116 32.3945H12.5185C12.8644 32.3945 13.0416 32.3184 13.2609 32.0732H13.5674C13.5815 32.6114 13.6433 33.7385 13.708 34.5584L13.2497 34.581Z" fill="#133C58"/>
<path d="M18.0554 40.7153V40.2673C18.809 40.1517 18.8736 39.9996 18.6684 39.436C18.5418 39.0528 18.3478 38.5146 18.1566 37.9877H15.7018C15.5612 38.385 15.3953 38.8471 15.2406 39.3571C15.0607 39.9714 15.086 40.1517 16.0195 40.2673V40.7153H13.1598L13.1738 40.2673C14.0174 40.1658 14.1721 40.0249 14.5911 38.9486L17.2118 32.3664L17.8641 32.2002C18.6824 34.4403 19.4754 36.6691 20.3049 38.8725C20.7407 39.9996 20.9067 40.1658 21.7109 40.2673V40.7153H18.0554ZM16.97 34.5417H16.9306C16.5735 35.4772 16.2529 36.3986 15.9211 37.3087H17.9148L16.97 34.5417Z" fill="#133C58"/>
<path d="M28.4342 34.581C28.2795 33.916 28.1024 33.4934 27.8718 33.2623C27.6553 33.0313 27.3235 32.9552 26.5811 32.9552H25.9934V39.0132C25.9934 40.1008 26.1199 40.1797 27.2447 40.2671V40.7151H23.0774V40.2671C24.1516 40.1769 24.2781 40.1008 24.2781 39.0132V32.9552H23.8423C22.7934 32.9552 22.5629 33.0961 22.3716 33.3018C22.1664 33.5187 22.0005 33.9555 21.8346 34.5951H21.3734C21.424 33.6596 21.4999 32.7241 21.5281 32.0732H21.8346C22.0398 32.3691 22.2057 32.3945 22.5629 32.3945H27.7003C28.0461 32.3945 28.2233 32.3184 28.4426 32.0732H28.7491C28.7632 32.6114 28.825 33.7385 28.8897 34.5584L28.4342 34.581Z" fill="#133C58"/>
<path d="M38.4644 32.8401C37.7614 32.8795 37.4409 33.1472 37.379 33.5952C37.3143 33.9925 37.2637 34.4659 37.2637 35.376V36.7708C37.2637 38.1289 37.0585 39.2053 36.3442 39.9717C35.7565 40.5859 34.8876 40.9072 33.9794 40.9072C33.1358 40.9072 32.3316 40.7268 31.7186 40.2422C30.9903 39.6786 30.6585 38.7319 30.6585 37.2329V34.2236C30.6585 33.0204 30.532 32.9303 29.5844 32.8401V32.3921H33.4311V32.8401C32.4975 32.9303 32.371 33.0204 32.371 34.2236V37.0018C32.371 38.9235 33.0599 40.0365 34.4406 40.0365C35.9618 40.0365 36.6254 38.8841 36.6254 36.7454V35.376C36.6254 34.4659 36.5607 33.9813 36.4989 33.5952C36.4342 33.1472 36.1277 32.8908 35.2588 32.8401V32.3921H38.4644V32.8401Z" fill="#133C58"/>
<path d="M43.7424 34.4762C43.4752 33.6703 43 32.7208 41.954 32.7208C41.2369 32.7208 40.7139 33.2589 40.7139 33.9887C40.7139 34.6931 41.1751 35.1017 42.2998 35.6652C43.6411 36.3189 44.5606 37.0346 44.5606 38.3026C44.5606 39.7622 43.3206 40.9033 41.4563 40.9033C40.9951 40.9033 40.548 40.8385 40.1656 40.723C39.8085 40.6216 39.5638 40.5173 39.3867 40.4412C39.2714 40.12 39.1055 39.0465 39.0155 38.2632L39.4626 38.1223C39.7185 38.9422 40.4721 40.3764 41.6981 40.3764C42.477 40.3764 42.9747 39.8382 42.9747 39.0324C42.9747 38.2772 42.4123 37.8039 41.4534 37.291C40.1375 36.6261 39.2292 35.9329 39.2292 34.7044C39.2292 33.2956 40.3399 32.1938 42.1564 32.1938C42.9747 32.1938 43.703 32.4503 43.9336 32.5404C43.9842 33.0138 44.0742 33.5773 44.1754 34.3719L43.7424 34.4762Z" fill="#133C58"/>
<path d="M56.7419 37.1783C56.1035 37.3051 56.0248 37.3587 56.0248 38.2153V39.2268C56.0248 39.6889 56.0389 40.0975 56.1007 40.43C55.3331 40.6216 54.2224 40.9033 53.1876 40.9033C50.2238 40.9033 48.3173 39.2127 48.3173 36.6514C48.3173 33.7323 50.6822 32.1938 53.3788 32.1938C54.4136 32.1938 55.4118 32.4503 55.8702 32.5517C55.9095 32.9997 55.9714 33.6647 56.0754 34.6762L55.603 34.7664C55.2825 33.3463 54.3264 32.7292 53.1229 32.7292C51.5904 32.7292 50.2604 34.1127 50.2604 36.4176C50.2604 38.3505 51.2052 40.3623 53.3029 40.3623C53.5588 40.3623 53.8512 40.3229 54.0199 40.2074C54.2111 40.0918 54.3152 39.8861 54.3152 39.5029V38.2857C54.3152 37.3897 54.2505 37.2854 52.9092 37.1727V36.736H56.7419V37.1783Z" fill="#133C58"/>
<path d="M65.4056 40.8311C65.3297 40.8311 65.175 40.817 65.0232 40.817C63.412 40.7409 62.9143 40.3802 62.4025 39.5744C62.0707 39.0503 61.7248 38.3571 61.3536 37.6922C61.1484 37.2949 60.9178 37.1427 60.5101 37.1286H60.2682V38.9996C60.2682 40.0506 60.3948 40.1774 61.3536 40.2675V40.7155H57.4929V40.2675C58.4517 40.1774 58.5923 40.0506 58.5923 38.9996V34.0827C58.5923 33.0571 58.477 32.9303 57.5435 32.8401V32.3921H61.1343C62.245 32.3921 62.8974 32.5189 63.4092 32.8795C63.9209 33.212 64.278 33.7897 64.278 34.5814C64.278 35.7085 63.5357 36.3115 62.6809 36.6693C62.8608 37.0413 63.3445 37.8979 63.7157 38.4868C64.1768 39.1912 64.4439 39.5997 64.6998 39.8702C64.981 40.1661 65.1863 40.3183 65.4787 40.4197L65.4056 40.8311ZM60.6 36.6299C61.1371 36.6299 61.5702 36.5397 61.8513 36.2833C62.2872 35.9255 62.4643 35.4127 62.4643 34.759C62.4643 33.4008 61.6714 32.9021 60.9572 32.9021C60.6366 32.9021 60.4594 32.9528 60.3807 33.0289C60.2907 33.105 60.2654 33.2346 60.2654 33.5023V36.6271H60.6V36.6299Z" fill="#133C58"/>
<path d="M70.3123 32.2129C72.6265 32.2129 74.5302 33.9289 74.5302 36.4648C74.5302 39.2318 72.5505 40.9083 70.1463 40.9083C67.5903 40.9083 65.8132 39.0261 65.8132 36.5662C65.8132 34.3628 67.371 32.2129 70.2982 32.2129H70.3123ZM70.0592 32.737C68.7798 32.737 67.7703 34.1064 67.7703 36.3239C67.7703 38.5133 68.7404 40.3701 70.3769 40.3701C71.5917 40.3701 72.5759 39.1782 72.5759 36.8226C72.5759 34.2754 71.5411 32.737 70.0704 32.737H70.0592Z" fill="#133C58"/>
<path d="M84.192 32.8401C83.489 32.8795 83.1684 33.1472 83.1066 33.5952C83.0419 33.9925 82.9913 34.4659 82.9913 35.376V36.7708C82.9913 38.1289 82.786 39.2053 82.0718 39.9717C81.4841 40.5859 80.6152 40.9072 79.7069 40.9072C78.8634 40.9072 78.0591 40.7268 77.4461 40.2422C76.7179 39.6786 76.3861 38.7319 76.3861 37.2329V34.2236C76.3861 33.0204 76.2595 32.9303 75.3119 32.8401V32.3921H79.1586V32.8401C78.225 32.9303 78.0985 33.0204 78.0985 34.2236V37.0018C78.0985 38.9235 78.7874 40.0365 80.1681 40.0365C81.6893 40.0365 82.353 38.8841 82.353 36.7454V35.376C82.353 34.4659 82.2883 33.9813 82.2264 33.5952C82.1618 33.1472 81.8552 32.8908 80.9864 32.8401V32.3921H84.1948V32.8401H84.192Z" fill="#133C58"/>
<path d="M88.32 32.3925C89.3295 32.3925 90.0578 32.5334 90.5555 32.8912C91.1573 33.2998 91.5003 33.9422 91.5003 34.7734C91.5003 36.4894 90.2349 37.2699 88.8936 37.4361C88.7024 37.4615 88.4972 37.4615 88.3566 37.4615L87.4877 37.2558V39.0112C87.4877 40.0989 87.603 40.189 88.7024 40.2792V40.7159H84.7292V40.2792C85.6881 40.189 85.8033 40.0989 85.8033 39.0112V34.1056C85.8033 33.018 85.6881 32.9391 84.8051 32.8377V32.3896H88.32V32.3925ZM87.4905 36.7458C87.6452 36.8106 87.9123 36.8726 88.1794 36.8726C88.6518 36.8726 89.6754 36.5401 89.6754 34.81C89.6754 33.3618 88.8571 32.8884 88.0782 32.8884C87.8364 32.8884 87.6817 32.9532 87.6058 33.0152C87.5299 33.0913 87.4905 33.2209 87.4905 33.4125V36.7458Z" fill="#133C58"/>
<path d="M58.8876 8.47492C57.611 5.84883 55.786 3.8539 53.4634 2.45069C51.1941 0.960134 48.4834 0.0922852 45.5675 0.0922852C37.5985 0.0922852 31.1367 6.56734 31.1367 14.5527C31.1367 22.538 37.5957 29.0131 45.5675 29.0131C46.7991 29.0131 47.9942 28.8581 49.133 28.5679C50.1228 28.3368 51.121 28.0015 52.1277 27.5563C55.547 26.0404 57.8387 23.3664 59.2616 19.9232C60.8559 16.0461 60.7097 12.2253 58.8876 8.47492ZM46.4335 26.556C45.7868 26.556 45.2919 26.5758 44.8364 26.5645C44.5552 26.5476 44.274 26.5194 43.9984 26.4856C43.5598 26.3757 43.5513 26.1221 43.8016 25.5135C44.2852 24.3442 44.6508 23.1523 44.6311 21.859C44.6002 19.7964 43.8269 17.9931 42.7359 16.3081C41.4817 14.3723 40.4863 12.3605 40.4919 9.9852C40.4948 8.6158 41.0037 7.39574 41.8782 6.40391C42.9299 5.20921 44.1587 4.20612 45.5084 3.31854C46.3548 2.76346 47.1787 2.83672 48.0082 2.90998C48.8265 2.98324 49.6223 3.23401 50.3984 3.52705C50.7864 3.69893 51.166 3.89053 51.5316 4.09904C51.5484 4.14131 51.5625 4.18639 51.5653 4.24275C51.5962 4.60623 51.2701 4.5865 51.0873 4.68512C48.7674 5.94181 46.6838 7.48027 45.41 9.86122C44.4455 11.6645 43.9675 13.5637 44.2627 15.6798C44.797 19.4724 47.0241 21.9773 50.1059 23.9074C50.5108 24.161 50.9467 24.3667 51.3516 24.6231C51.4753 24.702 51.6469 24.7217 51.7172 24.8908C50.1509 25.8291 48.3541 26.4208 46.4335 26.556ZM38.144 12.5437C38.5236 14.347 39.5612 15.8235 40.4807 17.3619C41.358 18.8271 42.0835 20.3459 41.9766 22.121C41.9232 23.0114 41.7179 23.8482 41.3524 24.6766C41.0571 25.3444 40.6972 25.3613 40.1742 25.0683C37.95 23.8257 36.2909 22.0365 35.2252 19.7288C34.4857 18.1283 34.0948 16.4264 34.2129 14.7725C34.0948 11.3828 35.2674 8.59608 37.4269 6.23204C38.2002 5.38673 39.1675 4.71612 40.1573 4.11313C40.3064 4.02297 40.4919 3.96098 40.6016 4.10186C40.7281 4.2681 40.6354 4.43717 40.5004 4.60623C39.4965 5.8601 38.7148 7.22668 38.1412 8.7426C37.6463 10.0472 37.8768 11.2757 38.144 12.5437ZM54.3829 22.1689C54.3604 21.0672 54.3744 19.9626 54.3744 18.8581C54.3744 17.7 54.3463 16.5392 54.3857 15.3839C54.4054 14.795 54.1888 14.6006 53.6208 14.6259C51.7172 14.7105 51.7172 14.1441 51.7284 16.4913C51.7368 18.0917 51.7228 19.6922 51.734 21.2898C51.7368 21.7632 51.6159 21.9012 51.1745 21.6138C49.3102 20.4078 47.5302 19.0723 46.92 16.8209C46.0483 13.6031 46.6444 10.4276 49.6926 8.27204C50.9495 7.38165 52.2795 6.70823 53.6771 6.11651C53.8205 6.05734 53.9414 6.02916 54.0539 6.03198C56.2331 8.21006 57.58 11.2222 57.58 14.5499C57.58 17.7169 56.3597 20.5994 54.3632 22.7493C54.2788 22.5859 54.3857 22.3464 54.3829 22.1689Z" fill="#133C58"/>
<path d="M94 33.2986C94 33.8086 93.6007 34.2116 93.0777 34.2116C92.5631 34.2116 92.1497 33.8115 92.1497 33.2986C92.1497 32.7999 92.5603 32.397 93.0777 32.397C93.6007 32.397 94 32.7999 94 33.2986ZM92.3831 33.2986C92.3831 33.6987 92.6784 34.0171 93.0861 34.0171C93.4798 34.0171 93.7722 33.6987 93.7722 33.3015C93.7722 32.9013 93.4826 32.5773 93.0805 32.5773C92.6784 32.5801 92.3831 32.9042 92.3831 33.2986ZM92.9371 33.772H92.729V32.8703C92.8105 32.8534 92.9258 32.8422 93.0748 32.8422C93.2436 32.8422 93.3223 32.8703 93.387 32.907C93.4376 32.9464 93.4741 33.0169 93.4741 33.1042C93.4741 33.2028 93.3982 33.2789 93.2886 33.3127V33.324C93.3757 33.3578 93.4263 33.4226 93.4545 33.5438C93.4826 33.6818 93.4994 33.7354 93.5191 33.7692H93.2942C93.2661 33.7354 93.2492 33.6537 93.2239 33.5494C93.207 33.4508 93.1536 33.4057 93.0383 33.4057H92.9399V33.772H92.9371ZM92.9427 33.262H93.0411C93.1564 33.262 93.2492 33.2226 93.2492 33.1296C93.2492 33.0479 93.1901 32.9915 93.058 32.9915C93.0045 32.9915 92.9652 32.9971 92.9427 33.0028V33.262Z" fill="#133C58"/>
</svg>
