<svg width="70" height="29" viewBox="0 0 70 29" fill="none" xmlns="http://www.w3.org/2000/svg">
<path d="M0.599304 6.53375C0.599304 6.53375 0.545777 6.53375 0.519012 6.53375C0.492247 6.53375 0.572539 6.49628 0.599304 6.53375Z" fill="#C5903A"/>
<path d="M45.0347 21.9236C44.6975 24.0082 42.6687 24.7845 40.8219 24.6379L40.8219 24.6107C42.6848 24.5782 44.4673 23.7367 44.751 21.6901C44.8181 20.9903 44.7322 20.2841 44.4994 19.6218C44.1383 18.7676 43.6039 18 42.931 17.3689C42.9231 17.3604 42.9184 17.3493 42.9179 17.3376C42.9174 17.3259 42.921 17.3144 42.9281 17.3052C42.9353 17.296 42.9454 17.2897 42.9568 17.2874C42.9681 17.2852 42.9799 17.2871 42.9899 17.293C43.7441 17.7731 44.341 18.4694 44.705 19.2937C45.069 20.1179 45.1837 21.0332 45.0347 21.9236Z" fill="#C5903A"/>
<path d="M43.0487 23.243C43.1129 23.243 43.1557 23.3136 43.1129 23.3625C42.31 24.2256 40.6826 24.0845 39.7084 23.6719C39.6763 23.6719 39.7084 23.6122 39.7084 23.623C40.332 23.7862 40.9803 23.8286 41.6194 23.7479C42.1115 23.6293 42.5904 23.4602 43.0487 23.243Z" fill="#C5903A"/>
<path d="M41.1698 23.183C40.7998 23.198 40.432 23.1197 40.0992 22.955C39.8208 22.841 39.505 22.7596 39.4086 22.4447C39.4086 22.4121 39.4461 22.3796 39.4675 22.4121C39.8851 22.8898 40.6666 22.8681 41.1965 23.0961C41.2073 23.1124 41.2233 23.1776 41.1698 23.183Z" fill="#C5903A"/>
<path d="M34.1038 18.6339C33.4791 19.2327 32.8944 19.8729 32.3533 20.5502C32.0482 20.99 31.8555 21.3265 31.7752 21.4188C31.6949 21.5111 31.6467 21.5274 31.5986 21.522C30.983 22.358 30.4316 23.1505 29.8642 23.8563C20.4268 35.669 -2.44667 20.3277 0.21378 7.20126C0.21378 7.0004 0.27266 6.51182 0.460015 6.51724C0.479554 6.51993 0.499368 6.51993 0.518907 6.51724C0.458447 6.61273 0.418332 6.71999 0.401139 6.83211C0.433259 9.72014 0.278027 12.923 2.94918 16.9891C7.6759 24.2091 16.5191 28.0689 22.2201 27.5532C27.0646 27.1189 29.4734 23.498 31.0258 21.1745C31.272 20.8126 31.5343 20.4507 31.8127 20.0888C32.4983 18.7397 33.5817 17.6409 34.9121 16.9456C40.0242 12.7982 46.7905 11.4356 49.2635 16.1585C49.558 16.7013 49.8363 17.5428 50.5857 17.5808C51.121 17.6079 52.0632 16.5548 51.1799 14.9859C49.9862 12.8633 45.2916 10.5453 38.6806 12.9882C35.8168 14.0413 32.6478 16.8588 32.6478 16.8588C32.546 16.9294 32.2891 14.9859 32.3159 15.1053C31.9869 13.9576 31.3914 12.9065 30.5792 12.0403C29.767 11.1742 28.7619 10.5181 27.648 10.1273C24.8805 9.25327 21.7918 11.7559 23.4245 13.6613C23.7617 14.0522 24.2167 14.5842 24.463 14.2585C24.0026 10.9416 28.0174 10.2413 30.0408 12.9122C33.7344 17.7979 28.8471 26.9234 19.9932 26.7117C14.0299 26.5652 2.86354 20.4471 1.05957 9.76898C0.914201 9.25021 0.812127 8.71996 0.754441 8.18384C0.752248 8.15334 0.760693 8.12304 0.77831 8.09823C0.795922 8.07342 0.821584 8.05568 0.850793 8.04812L0.850793 7.83639C0.786557 7.70611 0.727666 6.7181 0.609899 6.51724C0.882905 6.55524 0.989964 6.6801 1.04349 6.98953C1.07026 6.98953 1.09168 6.98953 1.09168 6.98953C1.13053 6.97632 1.17205 6.97338 1.21233 6.98098C1.2526 6.98858 1.2903 7.00648 1.32186 7.03297C1.39167 7.08214 1.45469 7.14057 1.50922 7.20669L1.67516 7.38583L1.8411 7.58668C1.95728 7.72354 2.08058 7.85401 2.21047 7.97754C2.65906 8.35464 3.23579 8.5379 3.81637 8.48784C4.43417 8.48128 5.03396 8.276 5.52933 7.90155C5.79067 7.65602 6.00104 7.36004 6.14811 7.03098C6.29518 6.70192 6.376 6.3464 6.38582 5.98525C6.48217 5.15467 6.50894 4.35665 6.59994 3.61836C6.67642 3.08135 6.82407 2.55728 7.03889 2.06035C7.11231 1.84417 7.22853 1.64549 7.38042 1.47652C7.53231 1.30755 7.71666 1.17186 7.92214 1.07777C7.96497 1.07777 8.06132 1.07776 8.1202 1.20805C8.46815 1.8812 9.13192 2.86378 9.48522 3.69979C9.48474 3.59756 9.49551 3.49559 9.51734 3.39579C9.55408 3.21019 9.62886 3.0345 9.73682 2.88008C9.83087 2.73772 9.94649 2.6113 10.0794 2.5055C10.3837 2.27737 10.7421 2.13508 11.1182 2.09312C11.4944 2.05116 11.8747 2.11103 12.2206 2.26664C13.2773 2.66687 14.2039 3.35653 14.8971 4.25893C15.2344 4.6721 15.4726 5.15895 15.593 5.68123C15.6787 6.14809 15.5663 6.55525 15.1541 6.6964C15.1541 6.6964 15.1541 6.75068 15.1541 6.74525C15.1312 6.75079 15.1074 6.75079 15.0845 6.74525C15.0635 6.74327 15.0432 6.73698 15.0248 6.72678C15.0063 6.71659 14.99 6.70268 14.977 6.68593C14.964 6.66917 14.9545 6.64992 14.949 6.62932C14.9436 6.60872 14.9423 6.58721 14.9453 6.5661L14.9721 6.50096L14.9721 6.39781C14.9499 6.1629 14.8788 5.93545 14.7634 5.7305C14.6481 5.52555 14.4911 5.34777 14.3029 5.20894C14.1249 5.07165 13.9235 4.96861 13.7088 4.90494C13.5354 4.85146 13.3545 4.82761 13.1735 4.83437C12.7506 4.83437 12.59 5.20895 12.5472 5.64324C12.5043 6.07753 12.5793 6.54982 12.5472 6.99497C12.5322 7.29129 12.4575 7.58136 12.3277 7.84726C12.2739 7.97736 12.2094 8.10266 12.135 8.22184C12.0549 8.3634 11.9538 8.49157 11.8352 8.60183C11.8704 8.61299 11.9045 8.62754 11.9369 8.64527C12.2358 8.77903 12.4933 8.99259 12.6818 9.26317C12.8704 9.53374 12.983 9.85117 13.0075 10.1816C13.0383 10.4961 12.9981 10.8135 12.8897 11.1099C12.6491 11.6666 12.2006 12.104 11.6425 12.3259C11.3618 12.4482 11.0694 12.541 10.7699 12.6027C10.6201 12.6353 10.4648 12.6625 10.3149 12.6842C10.1651 12.7059 10.0205 12.7222 9.87599 12.733C7.94914 12.8666 6.03104 12.3679 4.40521 11.3107C3.6337 10.8193 2.91593 10.2461 2.264 9.6007L2.20511 9.53556L2.2854 9.70928L2.48346 10.1056L2.58517 10.3064L2.69759 10.5019C3.2388 11.3701 3.97188 12.0987 4.8388 12.6299C5.73911 13.2397 6.73715 13.6861 7.78832 13.949C8.29858 14.0691 8.82472 14.1039 9.34604 14.0522C9.60181 14.0246 9.85567 13.9811 10.1062 13.9219L10.2989 13.873C10.3623 13.8564 10.4248 13.8365 10.4862 13.8133C10.604 13.7699 10.7218 13.721 10.8395 13.6667C11.0697 13.5636 11.2945 13.4605 11.514 13.3519L12.1617 13.0099L12.4722 12.847L12.788 12.6733L13.0985 12.5104L13.4036 12.3584C14.0909 12.0314 14.808 11.7732 15.5448 11.5876C16.3388 11.3634 17.1698 11.308 17.9858 11.4247C18.0119 11.4269 18.0371 11.4349 18.0597 11.4482C18.0824 11.4615 18.1018 11.4797 18.1166 11.5015C18.1315 11.5233 18.1414 11.5482 18.1456 11.5743C18.1498 11.6005 18.1483 11.6272 18.1411 11.6527C17.8948 12.4019 17.7985 13.5907 17.4131 14.4648C17.5319 14.3837 17.6573 14.3129 17.7878 14.253C18.0762 14.1226 18.3804 14.0313 18.6924 13.9816C19.0057 13.93 19.3225 13.9028 19.6399 13.9002C20.9018 13.8313 22.1399 14.268 23.0873 15.1162C23.5011 15.5459 23.8003 16.0753 23.9567 16.6546C24.1131 17.2339 24.1215 17.8441 23.9812 18.4276C23.8695 18.9882 23.6105 19.5077 23.2318 19.9314C23.0506 20.1411 22.8154 20.2954 22.5525 20.3769C22.2896 20.4584 22.0095 20.4639 21.7436 20.3928C21.734 20.4012 21.7216 20.4058 21.7089 20.4058C21.6961 20.4058 21.6838 20.4012 21.6741 20.3928C21.6493 20.3781 21.6303 20.355 21.6205 20.3277C21.5984 20.3189 21.5794 20.3036 21.566 20.2838C21.5527 20.2639 21.5455 20.2404 21.5455 20.2164C21.5455 20.1923 21.5527 20.1688 21.566 20.149C21.5794 20.1291 21.5984 20.1138 21.6205 20.1051L21.7169 20.0725L21.7972 19.9802C21.992 19.8239 22.137 19.6128 22.2141 19.3734C22.2912 19.1339 22.297 18.8767 22.2308 18.6339C22.1416 18.3983 22.0051 18.184 21.8301 18.0046C21.655 17.8252 21.4451 17.6845 21.2137 17.5916C20.9373 17.4863 20.6393 17.4525 20.3468 17.4933C20.0543 17.534 19.7764 17.6481 19.5382 17.8251C19.0743 18.1638 18.6277 18.5262 18.1999 18.9108C18.0339 19.0345 17.8542 19.1383 17.6646 19.2202C17.4719 19.3071 17.2685 19.3722 17.0758 19.4374C16.8726 19.5069 16.6652 19.5631 16.4549 19.6057C16.2014 19.6614 15.9433 19.6923 15.684 19.6979L15.775 19.8011C16.0058 20.0367 16.1447 20.3491 16.1658 20.6805C16.1639 20.8702 16.1224 21.0573 16.044 21.2295C15.9655 21.4016 15.852 21.555 15.7108 21.6794C15.6403 21.7534 15.5632 21.8206 15.4806 21.8803C15.3972 21.9426 15.3096 21.9988 15.2183 22.0485C15.0485 22.1497 14.8692 22.2333 14.683 22.2983C14.5759 22.3308 14.4689 22.3634 14.3565 22.3905C14.2441 22.4177 14.1263 22.434 14.0085 22.4448C13.7707 22.4758 13.531 22.4904 13.2912 22.4883C13.0439 22.478 12.7973 22.4544 12.5525 22.4177C12.2997 22.3809 12.0495 22.3283 11.8031 22.2603C11.5515 22.1897 11.2999 22.1137 11.0537 22.0268C10.8074 21.94 10.5665 21.8314 10.331 21.7283C9.86954 21.5186 9.42086 21.2811 8.98739 21.0171L8.73579 20.8705L8.50026 20.7077C8.33967 20.5991 8.18444 20.4851 8.0292 20.3765L7.80438 20.2028C7.7669 20.1757 7.72408 20.1485 7.69196 20.1214L7.6063 20.0399L7.26907 19.7251C6.81942 19.2962 6.37512 18.8294 5.95758 18.3462C5.11931 17.3772 4.36527 16.3365 3.70395 15.2356C3.09906 14.2313 2.5691 13.2107 2.09804 12.1902L2.18369 12.4942C4.77991 21.18 15.6305 26.2394 21.0156 26.0006C27.5142 25.7074 31.909 18.9922 29.7304 14.2367C28.8364 12.2987 25.3248 10.4639 24.9608 14.3345C24.8484 15.6048 23.6333 15.0565 22.734 13.7373C22.0541 12.7385 22.3271 10.2956 25.464 9.51927C28.1405 8.85155 31.181 11.0339 32.5246 13.8025C33.0599 14.9642 32.9582 15.4311 32.894 16.4354C35.2761 14.1228 36.1058 13.075 40.0082 11.8807C46.8119 9.79614 52.8983 13.341 52.3522 16.7013C52.0364 18.6339 49.5473 19.4157 48.4981 16.1585C45.9554 13.2867 42.2511 13.8242 38.7984 15.4799C38.6164 15.5722 38.4451 15.6591 38.2631 15.7513C49.574 13.2813 47.936 29.1818 39.9546 25.6369C38.1988 24.8551 37.1657 23.156 38.884 21.1637C39.4515 20.5177 39.5478 21.6631 41.2287 22.1408C42.2564 22.434 43.1504 21.6305 43.4876 20.7131C44.1782 18.8185 41.8175 15.5776 35.79 17.7111C35.1813 17.9216 34.6114 18.2335 34.1038 18.6339ZM3.99837 10.681C5.50691 11.6858 7.26337 12.2406 9.06769 12.2824C9.67727 12.2924 10.285 12.2119 10.8717 12.0436C11.1563 11.9558 11.4282 11.8298 11.68 11.669C11.926 11.5099 12.1388 11.3033 12.3063 11.061C12.3929 10.9361 12.4563 10.7963 12.4936 10.6484C12.5414 10.4718 12.5595 10.2883 12.5472 10.1056C12.5379 9.91432 12.4893 9.72713 12.4045 9.55605C12.3197 9.38497 12.2005 9.23375 12.0547 9.11213C11.8205 8.94881 11.5567 8.8344 11.2785 8.77555L11.1875 8.7267C11.0952 8.69023 11.0114 8.63479 10.9412 8.56385C10.861 8.48784 10.8502 8.33584 10.9091 8.30327C10.968 8.27069 11.1554 8.1784 11.2731 8.11326C11.3982 8.05446 11.5081 7.96713 11.5943 7.85811C11.699 7.72089 11.787 7.57144 11.8566 7.41296C11.928 7.23746 11.9835 7.05577 12.0226 6.8701C12.0675 6.45738 12.0801 6.04169 12.06 5.62696C12.0504 5.44337 12.0804 5.25986 12.1479 5.08923C12.2154 4.9186 12.3188 4.76493 12.4508 4.63894C12.6845 4.48364 12.9688 4.42713 13.243 4.48151C13.6055 4.54421 13.9504 4.68489 14.2548 4.89409C14.5718 5.11072 14.8311 5.40352 15.0095 5.74639C15.0501 5.83062 15.0789 5.92013 15.0952 6.01239C15.1547 5.83806 15.1694 5.65123 15.138 5.46952C15.0093 4.97516 14.763 4.52035 14.4207 4.14494C14.0878 3.72165 13.6902 3.3551 13.243 3.05921C12.861 2.79966 12.4397 2.60528 11.9958 2.48378C11.6738 2.38844 11.3316 2.38892 11.0099 2.48516C10.6882 2.5814 10.4005 2.76935 10.1811 3.02664C10.0625 3.1526 9.96811 3.29987 9.90276 3.46093C9.8264 3.65213 9.78995 3.85731 9.7957 4.06351C9.7957 4.21551 9.82782 4.40552 9.82782 4.5738C9.82782 4.74209 9.80105 4.88867 9.69934 4.94838C9.69934 4.94838 9.4424 4.94838 9.43169 4.82895C9.37805 4.20579 9.20533 3.59917 8.92315 3.04293C8.6555 2.50007 8.32361 1.95721 8.03455 1.38721C7.66934 1.657 7.39766 2.03703 7.25836 2.47293C7.0683 2.99956 6.93547 3.54566 6.86224 4.10152C6.75518 4.83981 6.71771 5.69752 6.58923 6.53353C6.51834 7.16343 6.21874 7.744 5.74881 8.16212C5.33067 8.50252 4.82568 8.71528 4.29278 8.77555C3.70179 8.89117 3.08996 8.81717 2.54235 8.56385C2.4571 8.51466 2.37487 8.46026 2.29612 8.40098C2.25472 8.37513 2.21535 8.34609 2.17835 8.31412L2.06592 8.21097L1.86252 7.9884C1.79293 7.9124 1.73404 7.82555 1.6698 7.74955L1.53062 7.54868C1.47709 7.47268 1.42356 7.38582 1.36468 7.31525C1.31418 7.25229 1.25464 7.19739 1.18803 7.1524C1.15035 7.12649 1.10484 7.11496 1.05957 7.11983L1.09703 7.53239C1.32131 8.08654 1.64636 8.59296 2.05522 9.02526C2.63195 9.65758 3.28479 10.2139 3.99837 10.681ZM1.91604 11.3216C2.41098 12.4084 2.97422 13.4619 3.60225 14.4756C4.23343 15.519 4.94018 16.5134 5.71669 17.4505L6.01112 17.7979L6.31088 18.1399L6.62135 18.4765L6.93183 18.8022L7.25301 19.1225L7.57419 19.4319L7.73478 19.5785L7.81508 19.6545L7.94355 19.7522C8.08273 19.8608 8.22191 19.9694 8.37179 20.0725C8.52168 20.1757 8.56986 20.2191 8.66621 20.2897C8.76257 20.3602 8.86962 20.4362 8.97668 20.496C9.1908 20.6317 9.41028 20.762 9.63511 20.8922C9.74752 20.952 9.85993 21.0225 9.9777 21.0768L10.3256 21.2397C10.5612 21.3482 10.8021 21.4514 11.0483 21.5437C11.2945 21.636 11.5354 21.7011 11.7817 21.7717C11.9048 21.8043 12.0279 21.8314 12.151 21.8585C12.2741 21.8857 12.3973 21.902 12.5204 21.9182C12.7635 21.9532 13.0083 21.9749 13.2538 21.9834C13.4935 21.9853 13.7332 21.9708 13.9711 21.94C14.4201 21.8849 14.843 21.696 15.1862 21.3971C15.3514 21.2784 15.4717 21.1061 15.5272 20.9087C15.5827 20.7113 15.57 20.5005 15.4913 20.3114C15.3361 19.9422 15.0256 19.7957 14.7633 19.5297C14.7321 19.4991 14.7051 19.4644 14.683 19.4265C14.5995 19.3486 14.5385 19.2492 14.5064 19.1388C14.4689 19.0194 14.6027 18.9054 14.7151 18.9217C15.1647 19.0229 15.6253 19.0649 16.0855 19.0465C16.6185 18.975 17.136 18.8136 17.6165 18.5688C18.0743 18.2825 18.5125 17.9651 18.928 17.6188C19.3799 17.2721 19.9297 17.0818 20.4964 17.0759C20.9244 17.0824 21.3411 17.2159 21.695 17.46C22.0489 17.7041 22.3245 18.0481 22.4877 18.4494C22.635 18.8166 22.635 19.2276 22.4877 19.5948C22.449 19.6898 22.3927 19.7764 22.3218 19.8499C22.5367 19.7686 22.7346 19.6471 22.9053 19.4917C23.2542 19.0821 23.466 18.5708 23.5101 18.0314C23.6027 17.3442 23.4666 16.6455 23.1233 16.0457C22.7801 15.4459 22.2494 14.9793 21.6152 14.7199C21.3496 14.608 21.0734 14.5243 20.7908 14.4702C20.6463 14.4702 20.5017 14.4268 20.3572 14.4105C20.2127 14.3942 20.0735 14.3833 19.9343 14.3779C19.6506 14.3779 19.3669 14.3779 19.1046 14.3779C18.8019 14.401 18.5023 14.4555 18.2106 14.5407C17.9215 14.6276 17.6497 14.7654 17.4077 14.9479C17.1026 15.1976 16.7653 15.6048 16.3371 15.5668C16.2943 15.5668 15.9999 15.3822 16.0855 15.3008C16.3389 15.071 16.5652 14.8123 16.76 14.5299C16.9542 14.2403 17.1107 13.9264 17.2257 13.5962C17.4345 12.9882 17.5308 12.3476 17.7182 11.7396C16.9274 11.7048 16.1365 11.8058 15.3789 12.0382C15.1915 12.087 15.0042 12.1467 14.8436 12.2119C14.7526 12.2499 14.6616 12.2824 14.5706 12.315C14.4796 12.3476 14.3886 12.3802 14.2976 12.4182C13.9229 12.5702 13.5749 12.7167 13.227 12.8904C13.0075 12.9936 12.7987 13.0967 12.5793 13.2107L12.2474 13.3845L11.9208 13.5527C11.696 13.6613 11.4712 13.7808 11.2357 13.8893C11.0001 13.9979 10.7699 14.0956 10.5291 14.1933C10.422 14.2313 10.3203 14.2693 10.2079 14.3019C10.0985 14.3311 9.98774 14.3547 9.87599 14.3725C9.42681 14.4483 8.97 14.4666 8.51633 14.4268C8.28632 14.4071 8.05756 14.3745 7.83113 14.329C5.93329 13.8674 4.2158 12.8386 2.90099 11.3759C2.79569 11.2488 2.69912 11.1146 2.61194 10.9741C2.52629 10.8384 2.44598 10.6973 2.36569 10.5561C2.2854 10.415 2.22117 10.2684 2.15693 10.1219C2.09269 9.97528 2.01775 9.83414 1.95887 9.68214C1.89999 9.53014 1.7608 9.17184 1.63233 8.8787C1.60283 8.81129 1.56885 8.74599 1.53062 8.68326L1.38074 8.4607C1.33992 8.40506 1.29326 8.3541 1.24157 8.3087C1.2951 8.79185 1.39145 9.39442 1.55204 10.187C1.61092 10.5833 1.75545 10.9524 1.91604 11.3216ZM39.0553 21.4948C38.6523 22.128 38.4906 22.8883 38.6003 23.6337C38.9697 25.056 42.235 26.2123 44.3281 24.448C46.86 22.3254 46.4104 13.759 36.9141 16.5602C36.8124 16.5873 36.7161 16.6253 36.6197 16.6579C36.0616 17.0254 35.5254 17.426 35.0138 17.8576C35.4475 17.6176 35.9051 17.4247 36.3788 17.2822C46.389 14.2802 45.0347 26.158 39.0553 21.4948Z" fill="#C5903A"/>
<path d="M2.48346 11.5062L2.60659 11.7179C2.69223 11.8537 2.78858 11.9948 2.88494 12.1305C2.98129 12.2662 3.09371 12.3911 3.20612 12.5159C3.31381 12.6468 3.43005 12.7701 3.55407 12.8851C3.67183 13.0045 3.79495 13.1239 3.92343 13.2379C4.0519 13.3519 4.18037 13.4605 4.30884 13.5691C4.56579 13.7917 4.84415 13.9925 5.09574 14.1988C6.28041 15.1063 7.56261 15.8748 8.91781 16.4897L9.16404 16.6037L9.42634 16.7068C9.60299 16.7774 9.77964 16.848 9.96164 16.9131C10.0511 16.947 10.1422 16.976 10.2346 17L10.5023 17.0814C10.6843 17.1303 10.8663 17.1846 11.0376 17.228C11.2089 17.2714 11.407 17.304 11.5729 17.3366C11.7388 17.3691 11.9369 17.4017 12.1082 17.418C12.2795 17.4343 12.4776 17.456 12.6435 17.4723C12.7345 17.4723 12.8255 17.4723 12.9165 17.4723L13.1949 17.4723C13.3715 17.4723 13.5482 17.4723 13.7302 17.4723C13.9122 17.4723 14.0781 17.4723 14.2655 17.4343C14.4528 17.3963 14.6081 17.4017 14.8008 17.38C14.9935 17.3583 15.1434 17.3311 15.3361 17.2986C15.5288 17.266 15.6894 17.2334 15.8714 17.1845C16.0534 17.1357 16.214 17.0868 16.4067 17.038C16.7493 16.9403 17.0865 16.8208 17.4291 16.734C17.4773 16.734 17.4987 16.7937 17.4291 16.8208C17.1396 16.9995 16.8306 17.1434 16.5084 17.2497C16.3424 17.304 16.1765 17.3583 16.0106 17.4017C15.8446 17.4451 15.8446 17.4506 15.759 17.4723L15.5127 17.5374C15.1518 17.628 14.7851 17.6933 14.4154 17.7328L13.8801 17.7817C13.6873 17.7817 13.5 17.7817 13.3073 17.7817C12.5349 17.7872 11.7645 17.7034 11.0108 17.532C10.8235 17.4886 10.6361 17.4288 10.4434 17.38L10.1597 17.2931C10.0654 17.2673 9.97249 17.2365 9.88134 17.2008L9.34604 16.9891L9.07304 16.8751L8.82145 16.7611C7.46992 16.1597 6.1984 15.3882 5.03686 14.4648C4.45592 13.9882 3.91845 13.4594 3.43096 12.8851L3.0723 12.4399L2.90635 12.2228C2.84747 12.1468 2.79395 12.0654 2.74577 11.9894C2.64131 11.8391 2.54482 11.6832 2.4567 11.5225C2.3692 11.3595 2.29232 11.1908 2.22653 11.0176L2.43529 11.2511L2.48346 11.5062Z" fill="#C5903A"/>
<path d="M2.11421 8.71047C2.17309 8.71047 2.22662 8.7539 2.28551 8.77561C2.36009 8.85227 2.43871 8.92475 2.52104 8.99276C2.60571 9.05758 2.69519 9.11566 2.78869 9.16648C2.87969 9.21533 2.97605 9.2642 3.0724 9.30763C3.16862 9.34588 3.26693 9.3785 3.36683 9.40534C3.56659 9.4636 3.77066 9.50536 3.97706 9.5302C4.18048 9.56277 4.3839 9.57363 4.58732 9.59534C5.49568 9.65446 6.40639 9.52515 7.26382 9.21533C8.08952 8.90465 8.8398 8.41776 9.46391 7.7876C9.75957 7.47861 10.0216 7.13827 10.2455 6.77245C10.3669 6.57596 10.4708 6.36885 10.5559 6.1536C10.6469 5.94188 10.7326 5.73015 10.8343 5.52929C10.8343 5.50215 10.8985 5.5293 10.8985 5.58902C10.8379 6.04829 10.6887 6.49098 10.4596 6.89188C10.2473 7.30903 9.97689 7.69298 9.65662 8.0319C9.02734 8.70739 8.24704 9.21942 7.38159 9.52477C6.50945 9.8575 5.57344 9.98195 4.64619 9.88848C4.16974 9.84568 3.70331 9.72469 3.26512 9.5302C3.04285 9.44069 2.82954 9.32979 2.62811 9.19905C2.52759 9.13502 2.43268 9.06238 2.3444 8.98191C2.26008 8.89835 2.18305 8.80753 2.11421 8.71047Z" fill="#C5903A"/>
<path d="M68.2294 9.08484C67.6031 9.22598 66.9714 9.33455 66.3451 9.46483C65.419 9.66026 64.5037 9.89371 63.5883 10.138C62.1804 10.518 60.7887 10.9523 59.3808 11.3269C59.8567 11.4173 60.318 11.5744 60.7512 11.7937C61.4732 12.1747 62.0884 12.735 62.5391 13.4223C63.0316 14.1389 63.3367 14.964 63.8238 15.686C64.1031 16.1502 64.4773 16.5482 64.9212 16.8532C65.328 17.0921 65.767 17.2495 66.1899 17.4666C66.2969 17.5209 66.2434 17.6838 66.1417 17.7109C65.8903 17.8094 65.6328 17.891 65.3708 17.9552C65.1567 17.9824 64.9426 18.0095 64.7338 18.0475C64.2491 18.1411 63.7779 18.2961 63.3313 18.5089C62.6359 18.8768 61.8555 19.0474 61.0724 19.0029C60.0018 18.8889 58.444 18.5361 58.0533 17.3743L57.882 17.0921C57.4528 16.2439 56.9737 15.4227 56.4473 14.6329C55.955 13.9772 55.3931 13.3782 54.7719 12.8469C54.5125 12.5941 54.2272 12.3702 53.9207 12.1791C53.6745 12.0434 53.4229 11.9837 53.1767 11.8751C53.0054 11.8751 52.8341 11.8317 52.6414 11.8046C51.742 11.6634 50.8695 11.392 49.9648 11.2129C49.2173 11.071 48.4776 10.8898 47.7487 10.67C47.6202 10.6428 47.4971 10.6103 47.3686 10.594C46.7047 10.51 46.0354 10.4774 45.3666 10.4963C44.5203 10.5119 43.6805 10.649 42.8721 10.9034C42.2565 11.1097 41.6837 11.6417 41.0092 11.5983C40.8599 11.6543 40.7058 11.6961 40.5489 11.7231C39.9334 11.8107 39.3061 11.7417 38.7235 11.5223C38.1531 11.28 37.6138 10.9683 37.1176 10.594C36.5958 10.3029 36.1181 9.93728 35.699 9.50827C35.6783 9.47524 35.6658 9.43765 35.6624 9.39868C35.659 9.35971 35.665 9.32048 35.6796 9.2843C35.6943 9.24813 35.7174 9.21605 35.7468 9.19078C35.7763 9.16552 35.8113 9.14781 35.8489 9.13913C35.992 8.95993 36.1757 8.8184 36.3842 8.72655C36.6786 8.55826 36.973 8.39539 37.2728 8.24339C37.8341 7.93856 38.4288 7.70171 39.0447 7.53768C39.6559 7.38788 40.2888 7.35109 40.9129 7.4291C41.0581 7.45135 41.2001 7.49146 41.3358 7.54853C41.8443 7.74152 42.3428 7.96077 42.8293 8.2054C43.6376 8.45984 44.4775 8.59692 45.3238 8.61255C45.9926 8.6342 46.6621 8.60151 47.3258 8.51482C47.4628 8.49554 47.5987 8.46836 47.7326 8.4334C48.1894 8.31035 48.6444 8.1692 49.0977 8.00997C49.9442 7.73195 50.8128 7.52853 51.6939 7.40196C52.1114 7.33682 52.5289 7.2934 52.9518 7.2554C52.9616 7.23554 52.9764 7.21868 52.9947 7.20654C53.273 7.05997 53.5674 7.0111 53.8511 6.85367C54.1563 6.66276 54.4415 6.44085 54.7023 6.19137C55.3236 5.6581 55.8855 5.05737 56.3778 4.39993C56.9064 3.61159 57.3856 2.79024 57.8124 1.94077C57.8649 1.84563 57.922 1.75322 57.9837 1.6639C58.3744 0.491319 59.9322 0.13846 61.0028 0.0353161C61.7857 -0.0147231 62.5671 0.154281 63.2617 0.523889C63.7081 0.738554 64.1793 0.895414 64.6642 0.990759C64.873 1.02876 65.0871 1.05046 65.3012 1.08304C65.5637 1.1429 65.8214 1.22275 66.0721 1.3219C66.1738 1.34904 66.2273 1.51191 66.1203 1.57163C65.6974 1.78334 65.2584 1.9462 64.8516 2.18506C64.4067 2.48883 64.0323 2.88708 63.7542 3.35221C63.2671 4.06879 62.962 4.89395 62.4695 5.61052C62.02 6.29893 61.4046 6.85951 60.6816 7.23911C60.5317 7.31511 60.3604 7.3911 60.1784 7.46167L60.2855 7.46167C61.2222 7.64081 62.1537 7.62997 63.0958 7.72768C64.5518 7.87969 66.0079 8.22711 67.4692 8.41168C67.8011 8.48768 68.133 8.5474 68.4649 8.60168L69.1073 8.78084C69.1155 8.81104 69.1155 8.84292 69.1073 8.87312C68.8289 8.9274 68.572 8.99255 68.2775 9.06855C68.2616 9.07449 68.2456 9.07992 68.2294 9.08484ZM54.8468 12.2932C55.5266 12.855 56.1329 13.5026 56.6508 14.2203C57.2063 15.0951 57.7121 16.0013 58.1657 16.9346C58.2567 17.1029 58.4922 17.3635 58.626 17.6078C59.0421 17.9653 59.5245 18.235 60.0448 18.4009C60.5651 18.5669 61.1128 18.6257 61.6558 18.5741C62.4137 18.4258 63.1471 18.17 63.8345 17.8141C64.2029 17.6875 64.5832 17.6002 64.9694 17.5535C65.1995 17.5209 65.4511 17.5155 65.6974 17.4992C65.037 17.2264 64.4406 16.8158 63.9469 16.2941C63.4506 15.6178 63.005 14.9046 62.614 14.1606C62.1996 13.4076 61.6142 12.7656 60.9064 12.2877C60.4765 12.0267 60.0112 11.8309 59.5253 11.7069C59.2042 11.6309 58.8509 11.6146 58.5243 11.5386C58.3798 11.5766 58.2406 11.6146 58.1014 11.6472C57.4266 11.8001 56.7412 11.8999 56.0512 11.9457C56.7424 12.2717 57.405 12.6567 58.0318 13.0966C58.7402 13.6349 59.4076 14.2265 60.0285 14.8663C60.5371 15.3495 61.3721 15.5232 61.7415 16.1475C61.7486 16.1623 61.7508 16.1791 61.7476 16.1953C61.7445 16.2114 61.7363 16.2262 61.7242 16.2372C61.7121 16.2482 61.6968 16.255 61.6806 16.2564C61.6644 16.2579 61.6482 16.2539 61.6344 16.2452C61.0268 15.9369 60.4386 15.5906 59.8733 15.2083C59.2546 14.6155 58.5925 14.0711 57.8927 13.5797C57.197 13.1045 56.4542 12.7042 55.6765 12.3854C55.3179 12.2497 54.9539 12.1086 54.6059 11.9946C54.5631 11.9946 54.5149 11.9946 54.4667 11.9946C54.5899 12.0814 54.7183 12.1954 54.8307 12.2932L54.8468 12.2932ZM59.5253 7.30425C60.0127 7.18469 60.4787 6.98871 60.9064 6.72338C61.6136 6.24703 62.1989 5.60693 62.614 4.85594C63.0025 4.11046 63.4482 3.39711 63.9469 2.72249C64.4392 2.199 65.036 1.78812 65.6974 1.51734C65.4511 1.51734 65.1995 1.51733 64.9694 1.46305C64.583 1.41447 64.2027 1.32533 63.8345 1.19705C63.1459 0.845234 62.4128 0.591312 61.6558 0.442463C61.1131 0.388509 60.5652 0.445764 60.0447 0.610832C59.5242 0.775898 59.0418 1.04542 58.626 1.40334C58.4922 1.65306 58.2567 1.9082 58.1657 2.08192C57.7121 3.01521 57.2063 3.92146 56.6508 4.79623C56.1328 5.51228 55.5265 6.1581 54.8468 6.71795C54.7183 6.83195 54.5631 6.96225 54.3971 7.08711C54.4585 7.07582 54.5193 7.06132 54.5791 7.04367C54.9539 6.92967 55.3286 6.7831 55.6926 6.64196C56.4691 6.3229 57.2117 5.92456 57.9087 5.45309C58.6073 4.96009 59.2693 4.41576 59.8893 3.8245C60.4558 3.44244 61.0438 3.0944 61.6505 2.7822C61.6647 2.77152 61.6821 2.76627 61.6997 2.76735C61.7173 2.76844 61.734 2.77579 61.7468 2.78811C61.7596 2.80044 61.7677 2.81696 61.7697 2.83475C61.7716 2.85254 61.7673 2.87045 61.7575 2.88534C61.3882 3.50421 60.5531 3.67793 60.0446 4.16651C59.4168 4.80174 58.7441 5.3896 58.0318 5.92538C57.3568 6.40165 56.64 6.81414 55.8906 7.15767C56.4581 7.15767 57.0201 7.15767 57.5768 7.15767C58.2104 7.17209 58.8429 7.2192 59.4718 7.29882L59.5253 7.30425ZM65.2049 8.38998C63.4491 8.13483 61.4257 7.84711 59.52 7.67339C59.0922 7.78227 58.6457 7.79154 58.2138 7.70053C58.2006 7.69652 58.189 7.68829 58.1807 7.67704C58.1724 7.66579 58.168 7.65214 58.168 7.63811C58.168 7.62408 58.1724 7.61042 58.1807 7.59917C58.189 7.58793 58.2006 7.57969 58.2138 7.57568C57.989 7.57568 57.7642 7.54854 57.5501 7.53768C56.4162 7.46977 55.2794 7.46977 54.1455 7.53768C53.9421 7.53768 53.728 7.58111 53.5139 7.60825C53.5071 7.61124 53.4998 7.61278 53.4925 7.61278C53.4851 7.61278 53.4778 7.61124 53.4711 7.60825C52.9358 7.65711 52.3523 7.72226 51.7849 7.81454C50.8431 7.9796 49.9131 8.2081 49.0013 8.49854L48.7658 8.5637C48.4062 8.69988 48.0353 8.80342 47.6577 8.87311C46.9213 9.03682 46.1684 9.11154 45.4148 9.09569C44.593 9.11123 43.7722 9.03108 42.9684 8.85683C42.375 8.72909 41.8092 8.49369 41.2983 8.16197C40.6512 8.0044 39.9754 8.0156 39.3337 8.19454C38.693 8.35956 38.065 8.57185 37.4548 8.82969C37.139 8.95455 36.8392 9.10112 36.5395 9.24769C36.5235 9.24474 36.5072 9.24474 36.4913 9.24769C36.755 9.39252 37.0073 9.55767 37.2461 9.7417C37.6835 10.0537 38.1394 10.3383 38.6111 10.594C39.1304 10.8427 39.6962 10.976 40.2705 10.9849C40.7931 10.9338 41.3073 10.8171 41.8015 10.6374C42.1751 10.4601 42.5663 10.3236 42.9684 10.2303C43.7722 10.055 44.5927 9.97128 45.4148 9.98056C46.1682 9.97026 46.9205 10.0449 47.6577 10.2031C48.0214 10.2778 48.3792 10.3794 48.7283 10.5071C49.0227 10.556 49.3278 10.594 49.6169 10.6537C50.5055 10.8328 51.378 11.0554 52.2934 11.2346C52.6895 11.316 53.0803 11.3703 53.4764 11.4191C53.4764 11.392 53.4764 11.3757 53.5192 11.3811C53.8618 11.4191 54.1884 11.4517 54.4988 11.4951C55.6773 11.5316 56.8563 11.4406 58.0158 11.2237C59.8562 10.8229 61.675 10.3265 63.4652 9.73626C64.3752 9.46483 65.2852 9.22056 66.2059 9.00341C66.3023 8.97627 66.3986 8.95455 66.495 8.93284C65.8366 8.90027 65.1353 9.06854 64.4983 9.07397C63.5294 9.07397 62.5659 9.16084 61.6023 9.23684C59.5201 9.42405 57.4286 9.48387 55.3393 9.41598C55.3247 9.41176 55.3119 9.40287 55.3028 9.39063C55.2937 9.37839 55.2888 9.36346 55.2888 9.34812C55.2888 9.33278 55.2937 9.31787 55.3028 9.30563C55.3119 9.29338 55.3247 9.28447 55.3393 9.28026C57.4162 9.0794 59.5039 8.93826 61.5863 8.80797C62.6033 8.74826 63.6204 8.68312 64.6428 8.68854C65.1085 8.68854 65.601 8.62341 66.0828 8.61255C65.7928 8.50857 65.4933 8.43401 65.1888 8.38998L65.2049 8.38998Z" fill="#C5903A"/>
</svg>
